<?xml version="1.0" encoding="UTF-8"?>
<svg width="315px" height="91px" viewBox="0 0 315 91" version="1.1" xmlns="http://www.w3.org/2000/svg" xmlns:xlink="http://www.w3.org/1999/xlink">
    <!-- Generator: Sketch 41.2 (35397) - http://www.bohemiancoding.com/sketch -->
    <title>Group 23</title>
    <desc>Created with Sketch.</desc>
    <defs>
        <polygon id="path-1" points="0.356685 0.663915659 1.4025429 0.663915659 1.4025429 0.272871433 0.356685 0.272871433 0.356685 0.663915659"></polygon>
        <polygon id="path-3" points="0.4505025 0.744170226 2.69154541 0.744170226 2.69154541 0.127722104 0.4505025 0.127722104"></polygon>
        <polygon id="path-5" points="0.255427474 0.676020685 1.07895037 0.676020685 1.07895037 0.25030274 0.255427474 0.25030274"></polygon>
        <polygon id="path-7" points="0.0805875 0.721156756 3.38662101 0.721156756 3.38662101 0.0686143835 0.0805875 0.0686143835"></polygon>
        <polygon id="path-9" points="314.6955 74.2304788 314.6955 0.257478613 1.02318155e-12 0.257478613 1.02318154e-12 74.2304788 314.6955 74.2304788"></polygon>
    </defs>
    <g id="Website" stroke="none" stroke-width="1" fill="none" fill-rule="evenodd">
        <g id="Desktop-HD-Copy-20" transform="translate(-934.000000, -8713.000000)">
            <g id="Group-23" transform="translate(1091.836840, 8756.891643) rotate(-4.000000) translate(-1091.836840, -8756.891643) translate(934.336840, 8717.891643)">
                <text id="Designers-draw-Copy-2" font-family="KGLifeisMessy, KG Life is Messy" font-size="23.4" font-weight="normal" letter-spacing="2.86000006" fill="#FFFFFF">
                    <tspan x="41.6528926" y="50.8813559">Designers dra</tspan>
                    <tspan x="252.573323" y="50.8813559">w</tspan>
                </text>
                <g id="Page-1-Copy" transform="translate(0.000000, -0.000000)">
                    <g id="Group-3" transform="translate(23.625000, 75.687836)">
                        <mask id="mask-2" fill="white">
                            <use xlink:href="#path-1"></use>
                        </mask>
                        <g id="Clip-2"></g>
                        <path d="M1.17726,0.286003878 C0.139335,0.264936755 0.51261,0.602010727 0.356685,0.663591549 C2.09286,0.573651138 1.13316,0.198494289 1.17726,0.286003878" id="Fill-1" fill="#FFFFFF" mask="url(#mask-2)"></path>
                    </g>
                    <polygon id="Fill-4" fill="#FFFFFF" points="41.9274975 75.4442836 41.6250975 75.5868918 44.1482475 75.2125452"></polygon>
                    <path d="M57.943305,75.2894839 C56.42553,74.7452904 52.14048,75.4716952 49.286055,75.3065662 L48.81513,75.1804825 L47.530455,75.6661081 C50.99808,75.539211 55.499955,75.1812959 57.943305,75.2894839" id="Fill-6" fill="#FFFFFF"></path>
                    <g id="Group-10" transform="translate(64.050000, 75.687836)">
                        <mask id="mask-4" fill="white">
                            <use xlink:href="#path-3"></use>
                        </mask>
                        <g id="Clip-9"></g>
                        <path d="M2.4428775,0.298872727 C1.9136775,0.0833398504 4.2887775,0.0703754668 0.4505025,0.265651494 C0.6437025,0.292390535 0.6993525,0.300493275 0.8117025,0.315888481 C1.1571525,0.312647385 1.6333275,0.307785741 2.4428775,0.298872727" id="Fill-8" fill="#FFFFFF" mask="url(#mask-4)"></path>
                    </g>
                    <g id="Group-13" transform="translate(64.050000, 75.687836)">
                        <mask id="mask-6" fill="white">
                            <use xlink:href="#path-5"></use>
                        </mask>
                        <g id="Clip-12"></g>
                        <path d="M0.8119125,0.25030274 C-0.8749125,0.298108904 1.9170375,0.418839726 0.8119125,0.25030274" id="Fill-11" fill="#FFFFFF" mask="url(#mask-6)"></path>
                    </g>
                    <g id="Group-16" transform="translate(70.350000, 75.687836)">
                        <mask id="mask-8" fill="white">
                            <use xlink:href="#path-7"></use>
                        </mask>
                        <g id="Clip-15"></g>
                        <path d="M2.3008125,0.0686143835 L0.0805875,0.314937671 C0.5462625,0.441340411 2.5239375,0.429186301 1.7905125,0.54100411 C4.0684875,0.377328767 3.5986125,0.255787671 2.3008125,0.0686143835" id="Fill-14" fill="#FFFFFF" mask="url(#mask-8)"></path>
                    </g>
                    <path d="M74.7534375,75.4491356 L73.6026375,75.5617637 C73.8052875,75.612811 74.1097875,75.6249651 74.7534375,75.4491356" id="Fill-17" fill="#FFFFFF"></path>
                    <path d="M71.16291,75.7998647 L73.60311,75.5656955 C73.280235,75.4798064 73.244535,75.2934434 72.48276,75.6572564 C72.680685,75.4798064 72.199785,75.6604975 71.16291,75.7998647" id="Fill-19" fill="#FFFFFF"></path>
                    <path d="M69.77964,75.7713418 C68.53224,75.6692473 66.92154,75.6198205 69.14964,75.3783589 C64.899765,75.5371726 65.529765,75.931776 69.77964,75.7713418" id="Fill-21" fill="#FFFFFF"></path>
                    <path d="M58.7566875,74.8658774 L57.0898125,74.7281308 L55.6497375,74.9477151 C56.3689875,74.8407589 58.8611625,75.0449479 58.7566875,74.8658774" id="Fill-23" fill="#FFFFFF"></path>
                    <path d="M86.49501,75.8987418 C86.63256,75.772339 85.74426,75.5884068 85.576785,75.4352651 L83.93721,75.6151459 C84.78141,75.6791575 86.38161,75.718861 86.49501,75.8987418" id="Fill-25" fill="#FFFFFF"></path>
                    <path d="M85.5769425,75.5296404 L88.0302675,75.2590089 C85.8368175,75.2881788 85.4367675,75.3967555 85.5769425,75.5296404" id="Fill-27" fill="#FFFFFF"></path>
                    <polygon id="Fill-29" fill="#FFFFFF" points="75.1435125 75.0336369 71.1146625 75.5713228 75.9210375 75.0092336"></polygon>
                    <polygon id="Fill-31" fill="#FFFFFF" points="95.87319 75.6379635 94.484565 75.9641542 96.95889 75.4606329"></polygon>
                    <path d="M102.093023,75.4388103 C101.066123,75.7056196 103.510523,75.7983522 102.423248,75.9756828 C104.112698,75.8878309 105.552773,75.629156 106.848998,75.4038322 C105.470348,75.5518789 103.998773,75.5811628 102.093023,75.4388103" id="Fill-33" fill="#FFFFFF"></path>
                    <path d="M109.02696,75.1832747 C108.33816,75.2634918 107.62521,75.388274 106.84926,75.5227795 C107.581635,75.4433726 108.301935,75.3404678 109.02696,75.1832747" id="Fill-35" fill="#FFFFFF"></path>
                    <path d="M92.2129425,75.2282185 C92.4040425,75.2970918 92.7715425,75.481024 94.1496675,75.5239685 L93.1799925,75.2055308 C92.8849425,75.2128233 92.5515675,75.2201158 92.2129425,75.2282185" id="Fill-37" fill="#FFFFFF"></path>
                    <path d="M93.14571,75.2097404 L93.179835,75.2194637 C94.227735,75.1992068 94.95486,75.1854322 95.266185,75.17895 C94.998435,75.1830014 94.36056,75.1919144 93.14571,75.2097404" id="Fill-39" fill="#FFFFFF"></path>
                    <path d="M91.9695,75.2352235 C92.1072567,75.2327927 92.2093587,75.2319824 92.3454947,75.2295516 C92.2012553,75.1979509 92.1145497,75.1882276 91.9695,75.2352235" id="Fill-41" fill="#FFFFFF"></path>
                    <path d="M81.582795,75.304517 C83.023395,75.1019044 86.028495,74.8531452 83.11527,74.6519747 C82.08312,74.884871 83.75052,74.9995166 81.582795,75.304517" id="Fill-43" fill="#FFFFFF"></path>
                    <path d="M90.76536,74.9660829 L88.156635,74.9620315 C88.209135,75.0519719 88.680585,75.1718925 87.967635,75.2885719 L90.76536,74.9660829 Z" id="Fill-45" fill="#FFFFFF"></path>
                    <polygon id="Fill-47" fill="#FFFFFF" points="92.0408475 74.8692096 90.7650975 75.0158692 91.7326725 75.0174897"></polygon>
                    <path d="M104.555378,75.1830397 C105.679928,74.9942459 106.912103,74.9399575 108.303353,74.8686534 C106.810778,74.8508274 105.267803,74.8670328 103.803053,74.9164596 C103.597778,75.0298979 102.956753,75.2486719 104.555378,75.1830397" id="Fill-49" fill="#FFFFFF"></path>
                    <path d="M99.0125212,75.1301167 C99.1324505,75.122014 99.2864138,75.1106702 99.3982398,75.1033777 C99.1600018,75.0782592 98.9695735,75.0725873 99.0125212,75.1301167" id="Fill-51" fill="#FFFFFF"></path>
                    <path d="M122.153475,74.5778945 C122.035977,74.5592582 121.933064,74.5430527 121.812325,74.5236062 C121.786394,74.5446733 121.768567,74.5641199 121.734533,74.585187 L122.153475,74.5778945 Z" id="Fill-53" fill="#FFFFFF"></path>
                    <path d="M103.551998,74.8635511 C102.429548,74.8287093 101.760698,74.9332346 101.123348,75.0580168 C101.961248,74.9988668 102.849548,74.9510607 103.803473,74.9210805 C103.895348,74.869223 103.912673,74.8360018 103.551998,74.8635511" id="Fill-55" fill="#FFFFFF"></path>
                    <path d="M112.847595,75.0373966 C112.262745,74.9847288 111.599145,74.9458356 110.902995,74.9126144 C111.475245,75.0033651 112.64232,75.1346295 112.847595,75.0373966" id="Fill-57" fill="#FFFFFF"></path>
                    <path d="M99.7307188,75.1521582 C99.6440132,75.1586404 99.5662212,75.1651226 99.4722225,75.1724151 C100.041077,75.2364267 99.9697672,75.2007747 99.7307188,75.1521582" id="Fill-59" fill="#FFFFFF"></path>
                    <path d="M99.6396975,75.2406986 C100.216148,75.1742562 100.668698,75.0754027 101.123348,74.9870829 C100.441373,75.0332685 99.8082225,75.0891774 99.2606475,75.1556199 C99.3997725,75.176687 99.5394225,75.2099082 99.6396975,75.2406986" id="Fill-61" fill="#FFFFFF"></path>
                    <path d="M126.121328,73.0077082 C125.929178,73.2213041 122.986553,73.4892219 120.437153,73.3294205 C117.937103,73.5445986 119.590328,74.1959342 121.785353,74.5234479 C121.860428,74.430626 121.858853,74.3462425 124.432403,74.1579616 C123.527303,74.0667219 118.708853,74.0356055 120.878153,73.7919479 C124.288553,73.5978658 123.676403,73.7951123 125.338553,73.863674 C123.921578,73.6390027 129.670853,73.3747767 128.918003,73.0114 L125.928653,73.2213041 C125.871428,73.1632904 126.953978,73.0409342 126.121328,73.0077082" id="Fill-63" fill="#FFFFFF"></path>
                    <path d="M116.874713,74.6449795 L115.814738,74.7203349 C117.024338,74.7357301 117.892163,74.8345836 119.488688,75.0314801 C121.250588,74.8102753 121.614938,74.6741493 121.734638,74.5639521 L116.512463,74.7049397 L116.874713,74.6449795 Z" id="Fill-65" fill="#FFFFFF"></path>
                    <path d="M111.053933,74.7716411 C111.877133,74.525874 114.421283,74.3734562 112.856258,74.1619699 C109.745108,74.2463534 110.680133,74.399826 108.823208,74.5390589 C113.843258,74.3724014 107.383133,74.6972781 111.014558,74.746326 C110.028608,74.8069767 109.140833,74.8380932 108.303458,74.8660452 C109.208558,74.8739562 110.081108,74.8887233 110.902733,74.9129836 C110.857058,74.908237 110.825033,74.9050726 110.787758,74.9008534 L110.764133,74.9024356 L110.768858,74.8987438 C110.551508,74.875011 110.480108,74.8597164 110.724233,74.8707918 C110.741033,74.8676274 110.801933,74.8649904 110.829233,74.8634082 C110.862308,74.831237 110.954708,74.8017027 111.053933,74.7726959 C112.509233,74.7879904 111.283883,74.8270178 110.829233,74.8634082 C110.812433,74.875011 110.773058,74.8866137 110.768858,74.8987438 C110.773583,74.8992712 110.780408,74.900326 110.787758,74.9008534 L115.815158,74.6656342 C114.749408,74.6577233 113.416958,74.6935863 111.053933,74.7716411" id="Fill-67" fill="#FFFFFF"></path>
                    <path d="M85.7904075,74.1222173 C86.0264123,74.1489564 86.0161168,74.1740749 86.0343319,74.1991934 C86.5245567,74.1489564 86.7098759,74.1165454 85.7904075,74.1222173" id="Fill-69" fill="#FFFFFF"></path>
                    <path d="M87.8619525,74.2362168 C87.4965525,74.2798836 87.1936275,74.3912033 86.0045025,74.3856681 C84.9723525,74.3247805 86.0076525,74.2583577 85.9520025,74.1722541 C85.2369525,74.2552826 83.4472275,74.407809 85.6958025,74.4957577 L86.0512275,74.4533209 C88.0772025,74.5117484 90.6843525,74.7786695 90.3310275,74.8247965 C89.7367275,74.599082 89.2127775,74.4404054 87.8619525,74.2362168" id="Fill-71" fill="#FFFFFF"></path>
                    <path d="M99.60048,74.6384411 L103.78683,74.3456015 L101.65008,74.1040089 L101.76033,74.2829664 C99.377355,74.2805261 99.895005,74.489581 99.60048,74.6384411" id="Fill-73" fill="#FFFFFF"></path>
                    <polygon id="Fill-75" fill="#FFFFFF" points="122.487855 74.7390676 121.93818 75.1311472 124.349505 74.5137438"></polygon>
                    <polygon id="Fill-77" fill="#FFFFFF" points="127.93032 74.4934918 127.734495 74.822463 129.16827 74.5728986"></polygon>
                    <path d="M225.246315,4.42797466 L224.01414,4.48793493 C224.59689,4.47497055 224.97174,4.45390342 225.246315,4.42797466" id="Fill-79" fill="#FFFFFF"></path>
                    <path d="M234.267823,4.64011301 L234.607784,4.48778151 C233.96843,4.56475753 233.706359,4.62471781 234.267823,4.64011301" id="Fill-81" fill="#FFFFFF"></path>
                    <path d="M261.55227,69.3348897 C263.353545,69.4961342 265.37007,69.7886432 265.14117,69.4467075 L264.57942,69.1420445 C263.330445,69.3122021 262.369695,69.3454233 261.55227,69.3348897" id="Fill-83" fill="#FFFFFF"></path>
                    <path d="M303.829313,17.7339966 C303.934838,17.8700651 304.044038,18.0119349 304.153238,18.15275 C304.514963,18.4059007 304.865138,18.6379555 305.165438,18.8589349 C304.769063,18.5129623 304.304963,18.1364007 303.829313,17.7339966" id="Fill-85" fill="#FFFFFF"></path>
                    <path d="M302.277885,17.5646493 C302.277885,17.5646493 301.867335,17.1559164 301.45731,16.7471836 C301.250985,16.542026 301.045185,16.3373959 300.890835,16.1833959 C300.72756,16.0394164 300.618885,15.9434301 300.618885,15.9434301 C301.007385,16.2925671 301.514535,16.8468616 302.277885,17.5646493" id="Fill-87" fill="#FFFFFF"></path>
                    <path d="M176.58228,3.70359452 L175.14273,4.02122192 C177.388155,4.08199247 176.402205,3.87456233 176.58228,3.70359452" id="Fill-89" fill="#FFFFFF"></path>
                    <path d="M183.667995,72.7475631 C185.217795,72.7937487 186.449445,72.7791638 187.53147,72.7321679 C185.662995,72.6406069 184.153095,72.4258843 183.667995,72.7475631" id="Fill-91" fill="#FFFFFF"></path>
                    <path d="M228.792743,2.05711301 C228.039368,2.10167808 227.717018,2.16568973 227.738018,2.2442863 C228.513968,2.2037726 228.952868,2.14705342 228.792743,2.05711301" id="Fill-93" fill="#FFFFFF"></path>
                    <path d="M191.997645,72.5179288 C191.72412,72.5065849 191.45637,72.4952411 191.17812,72.4838973 C190.04937,72.6086795 188.912745,72.7237384 187.53147,72.7820781 C188.91117,72.8517616 190.488795,72.8509514 191.997645,72.5179288" id="Fill-95" fill="#FFFFFF"></path>
                    <path d="M6.48020333,20.5145404 C6.379722,20.6772291 6.25979267,20.8724554 6.168225,21.0196887 C6.18362133,21.0920851 6.30841267,20.8602538 6.48020333,20.5145404" id="Fill-97" fill="#FFFFFF"></path>
                    <path d="M11.5901625,68.4615966 C11.1796125,68.1351377 10.5737625,67.530213 9.9915375,66.9743363 C10.2624375,67.2575486 10.7275875,67.7274596 11.5901625,68.4615966" id="Fill-99" fill="#FFFFFF"></path>
                    <path d="M149.928606,73.9938884 C148.577369,74.0676233 149.715285,74.0408842 149.928606,73.9938884" id="Fill-101" fill="#FFFFFF"></path>
                    <path d="M144.193875,73.3163315 C144.541679,73.2660945 144.805891,73.2077548 144.844701,73.1251068 C144.711849,73.214237 144.484956,73.2750075 144.193875,73.3163315" id="Fill-103" fill="#FFFFFF"></path>
                    <path d="M203.515683,70.6427351 C203.568355,70.6411146 203.609682,70.6394941 203.669647,70.6378735 C203.137258,70.5908776 203.228825,70.5997906 203.515683,70.6427351" id="Fill-105" fill="#FFFFFF"></path>
                    <path d="M148.093523,73.939461 C148.527698,73.9637692 149.027498,73.9775438 149.571923,73.9791644 C149.332523,73.9621486 148.883648,73.948374 148.093523,73.939461" id="Fill-107" fill="#FFFFFF"></path>
                    <path d="M148.33035,74.0409322 C147.931875,74.0449836 147.618975,74.0482247 147.320775,74.0514658 C147.1764,74.1162877 147.306075,74.1470781 148.33035,74.0409322" id="Fill-109" fill="#FFFFFF"></path>
                    <path d="M151.44129,73.9356637 C150.781365,73.9696952 150.165015,73.9802288 149.571765,73.981039 C149.79909,73.9948137 149.894115,74.0110192 149.83374,74.0247938 C150.17184,74.0061575 150.64959,73.9794185 151.44129,73.9356637" id="Fill-111" fill="#FFFFFF"></path>
                    <path d="M94.7067975,2.90823151 C94.6301475,2.90174931 94.5424725,2.89526712 94.4589975,2.88797466 C93.2987475,3.09540479 93.8090475,3.04516781 94.7067975,2.90823151" id="Fill-113" fill="#FFFFFF"></path>
                    <path d="M291.273581,64.6399705 C291.195789,64.6634685 291.154462,64.6756226 291.083153,64.6975 C291.163376,64.6845356 291.264667,64.6683301 291.336787,64.6569863 L291.273581,64.6399705 Z" id="Fill-115" fill="#FFFFFF"></path>
                    <path d="M295.031048,63.430174 C293.509598,64.2402562 292.527848,64.4306466 291.247373,64.6510986 C291.247373,64.6510986 291.610673,64.7407562 291.973448,64.8309411 C292.339898,64.9116329 292.706873,64.9928521 292.706873,64.9928521 C292.706873,64.9928521 292.857548,64.9000301 293.083823,64.7618521 C293.304848,64.6178726 293.600423,64.4259 293.895473,64.2339274 C294.186323,64.0393178 294.469298,63.8320507 294.681398,63.6833247 C294.893498,63.535126 295.031048,63.430174 295.031048,63.430174" id="Fill-117" fill="#FFFFFF"></path>
                    <g id="Group-121" transform="translate(0.000000, 0.270027)">
                        <mask id="mask-10" fill="white">
                            <use xlink:href="#path-9"></use>
                        </mask>
                        <g id="Clip-120"></g>
                        <path d="M82.3200525,1.34997877 L83.0828775,1.38584178 C81.3692775,1.53034863 81.8475525,1.45018425 82.3200525,1.34997877 M158.570528,73.1345473 C158.179403,73.1825404 158.207753,73.2168212 158.374178,73.2474103 C158.645078,73.1741021 159.521828,73.1419308 160.520903,73.1282185 C160.241078,73.0707322 159.734978,73.0406705 158.570528,73.1345473 M162.479153,73.1208349 C162.514853,73.1150336 162.539528,73.1108144 162.568928,73.1055404 C164.452103,73.1450952 163.784303,73.1271637 162.479153,73.1208349 M307.641653,22.5808829 C307.187003,22.1468349 306.664628,21.3483555 306.041978,20.4575815 C306.572228,21.0366637 307.084103,21.7697459 307.641653,22.5808829 M247.437277,4.36405411 C246.593077,4.40782808 244.909402,4.55391712 244.294102,4.39675274 C245.258002,4.1161774 245.999827,4.26384863 247.437277,4.36405411 M203.907952,3.81081438 L206.815402,4.07715 C203.294752,4.34190342 200.754277,4.17208151 203.481652,4.51858151 C203.907427,3.81503356 214.801702,4.67521849 215.221177,3.96481438 L217.137952,4.15309521 C216.587752,4.1351637 216.499027,4.17577329 215.955652,4.15836918 C219.682627,4.57237603 218.738152,3.69795137 223.547152,3.88623219 C225.222427,3.96850616 226.391077,4.09138973 225.246577,4.15784178 L228.985102,4.04181438 C230.071852,4.07293082 229.804627,4.1931774 228.722602,4.16206096 L234.422002,4.19739658 L234.379477,4.21743767 C235.193752,4.11986918 237.038602,3.97483493 237.939502,3.90785548 C239.385877,4.02651986 237.211852,3.97588973 237.581452,4.06923904 L240.739327,3.93053356 C242.022427,4.13041712 239.404777,4.28178014 237.224977,4.2306226 C240.163402,4.97847192 239.845777,4.07978699 246.201952,4.56815685 L243.221002,4.62564315 C245.137777,5.05283493 247.466677,4.93364315 250.833502,5.22212945 C250.035502,5.08342397 244.092502,4.50908836 247.520227,4.36932808 C248.484652,4.43261575 249.758302,4.47797192 251.605252,4.34665 C251.621002,4.60191027 253.423852,4.55180753 255.674527,4.56551986 L255.517027,4.90041712 C257.948302,4.83818425 257.758777,4.66467055 259.190977,4.54547877 C261.895777,4.65095822 262.445452,4.93628014 263.068627,5.18573904 C267.376252,5.43994452 260.108677,4.62617055 265.217977,4.80601301 C268.793752,5.15515 271.307977,5.20050616 275.573077,5.63244452 C278.027452,6.13241712 275.108977,5.76851301 275.980477,6.00215 C275.980477,6.00215 276.539077,6.01480753 277.095052,6.04645137 L278.207002,6.1181774 C278.738827,6.22471164 278.550877,6.27323219 278.455852,6.29801986 C280.308577,6.54958836 278.671627,5.98632808 281.568052,6.52427329 C281.782777,6.47891712 282.247402,6.59125274 282.881077,6.78322534 C283.195552,6.88501301 283.554127,7.00156781 283.945252,7.12814315 C284.329027,7.27475959 284.745352,7.43403356 285.181627,7.6006911 C286.059952,7.91660205 286.996027,8.32428014 287.943127,8.6776363 C288.889177,9.03362945 289.808452,9.41757466 290.690977,9.65490342 C291.458527,10.119013 290.218477,9.66439658 290.412202,9.90330753 C291.555127,10.3595062 292.381477,10.6796363 293.010952,10.9670678 C293.639902,11.2603007 294.096127,11.4728418 294.527677,11.6737801 C294.967627,11.8615336 295.357177,12.0819856 295.883752,12.3404103 C296.406127,12.6062185 297.069727,12.9047253 297.953827,13.4252664 C297.953827,13.4252664 298.125502,13.5608075 298.383277,13.7633281 C298.635802,13.9721774 298.993327,14.2221637 299.314627,14.5190884 C299.966677,15.096061 300.619252,15.6730336 300.619252,15.6730336 C298.742377,13.9215473 301.574752,15.5918144 303.829102,17.4640747 C303.274702,16.7093692 302.721877,16.1371432 302.362252,15.7394856 C302.362252,15.7394856 302.589577,15.9235473 302.930302,16.1999034 C303.100402,16.3386089 303.298852,16.5010473 303.511477,16.674561 C303.713602,16.8602048 303.929377,17.0579788 304.145152,17.2562801 C304.576702,17.6539377 305.008252,18.0521226 305.332177,18.3506295 C305.636677,18.66865 305.839852,18.8806637 305.839852,18.8806637 C306.175852,19.3437185 305.774227,19.0641979 305.165227,18.589013 C305.398327,18.8068281 305.619352,19.0135678 305.792077,19.1749514 C306.807427,20.5082116 306.079777,19.9797596 305.159977,19.2250541 C304.848127,18.748287 304.486927,18.319513 304.153027,17.8828281 C303.671077,17.5563692 303.216952,17.2341295 302.861527,17.0632527 C302.505052,16.8929034 302.280877,16.8369993 302.302927,16.9878349 C302.427877,17.0711637 302.603227,17.2009034 302.807977,17.35965 C303.003802,17.5289445 303.224302,17.7319925 303.454777,17.9466432 C303.206452,17.7784034 303.039502,17.6824171 303.113002,17.8026637 C303.198052,17.93715 303.586027,18.2171979 304.177702,18.6834171 C304.177702,18.6834171 304.294252,18.9312938 304.410802,19.1791705 C304.513177,19.436013 304.615552,19.6933829 304.615552,19.6933829 L304.890652,19.7793486 C304.890652,19.7793486 305.125327,20.0667801 305.477602,20.4976637 C305.846152,20.9153623 306.264052,21.5287253 306.692977,22.1304856 C306.903502,22.433739 307.127677,22.7280267 307.314052,23.0186226 C307.493602,23.3139651 307.661077,23.5897938 307.804402,23.8260678 C308.091052,24.297561 308.282152,24.6118897 308.282152,24.6118897 C309.518002,26.3085267 310.686127,27.9518966 311.620102,30.0804719 C311.742427,30.3446979 311.866852,30.6136705 311.993902,30.8879171 C312.102052,31.1690199 312.199702,31.4601432 312.304702,31.7570678 C312.407602,32.0550473 312.513127,32.3598829 312.620227,32.6715747 C312.673252,32.828739 312.727327,32.9869582 312.781402,33.1478144 C312.820777,33.3118349 312.860677,33.4779651 312.900577,33.6462048 C313.047052,34.3223281 313.243927,35.0295678 313.356277,35.7921842 C313.401427,36.1756021 313.447627,36.5695678 313.495402,36.9740815 C313.518502,37.1771295 313.541077,37.3828144 313.564702,37.5916637 C313.579402,37.8010404 313.576252,38.0141089 313.582027,38.2298144 C313.461802,37.3749034 313.291177,37.2968486 313.196152,37.4097116 C313.093252,37.5246842 312.979852,37.8342664 312.811327,37.7941842 C312.917377,36.8780952 312.820777,35.5654034 312.444352,34.0987116 C312.311002,33.3556089 312.033802,32.5940473 311.791252,31.7987322 C311.580202,30.9933966 311.216377,30.2075747 310.950202,29.3816705 C311.535577,31.0978212 311.251552,30.7676705 311.044177,30.3584103 C311.044177,30.3584103 311.081452,30.4464856 311.147077,30.6015404 C311.207977,30.7581774 311.317702,30.9749377 311.408527,31.2476021 C311.586502,31.7966226 311.823802,32.5297048 312.060577,33.2622596 C312.233302,34.0148555 312.406027,34.7679788 312.535702,35.3322938 C312.610252,35.6149788 312.628102,35.8554719 312.652777,36.0226568 C312.675352,36.1903692 312.687952,36.2858281 312.687952,36.2858281 C312.395527,36.1750747 312.658027,37.6032664 312.485827,39.2028623 C312.618652,38.9038281 312.705802,39.0372596 312.764077,39.4539034 C312.840202,39.8705473 312.770902,40.5640747 312.731527,41.3778486 C312.721027,41.7860541 312.645952,42.2164103 312.575602,42.6573144 C312.504727,43.0976911 312.432802,43.547561 312.361927,43.9858281 C312.144052,44.846013 311.990227,45.6787733 311.822227,46.2926637 C311.580202,46.3828486 311.718802,45.7810884 312.330427,42.7838897 C312.207577,43.1915678 312.122002,43.5654925 312.042202,43.9125199 C311.942977,44.2548007 311.867377,44.573876 311.807002,44.8776568 C311.747152,45.1814377 311.702527,45.4704514 311.665777,45.7531363 C311.630077,46.0358212 311.563927,46.3011021 311.519302,46.573239 C311.410627,47.1106568 311.343427,47.6681158 311.140252,48.2551089 C310.923952,48.8352459 310.683502,49.4929103 310.231477,50.2064788 C310.571152,49.5303555 310.723402,49.1490473 310.769077,48.8442116 C310.523377,49.6991226 309.833527,51.0650815 309.221902,52.0660815 C308.575627,53.0486226 308.085802,53.708924 308.287927,53.2358486 L308.680102,52.5961158 C308.513152,52.859287 308.335177,53.1398623 308.148277,53.4346774 C307.941427,53.7152527 307.724602,54.0095404 307.499902,54.314376 C307.271527,54.6160473 307.051552,54.9414514 306.797977,55.251561 C306.537577,55.5563966 306.270877,55.8686158 306.000502,56.1855815 C305.483902,56.8421911 304.840252,57.4112527 304.255402,58.0314719 C303.962452,58.3426363 303.621727,58.5978966 303.311977,58.8821637 C302.992252,59.1537733 302.693002,59.445424 302.371177,59.6938281 C302.045677,59.9385404 301.727002,60.1785062 301.417777,60.4110884 C301.109077,60.6452527 300.816127,60.8831089 300.506377,61.0661158 C299.895802,61.4458418 299.360302,61.8398075 298.865227,62.1203829 C297.868777,62.6704582 297.209377,63.1113623 297.068152,63.2674719 C297.032452,63.2484856 297.137977,63.0675884 297.270802,62.8529377 C297.402577,62.6345952 297.566902,62.3951568 297.681352,62.2896774 L297.368977,62.5132938 C297.173677,62.6641295 296.873902,62.8429171 296.513752,63.0654788 C295.795552,63.5121842 294.795427,64.0569856 293.753827,64.5453555 C291.674827,65.5352801 289.437277,66.2551774 289.437277,66.2551774 C289.806877,66.0014993 289.185802,65.7699719 289.002577,65.4904514 C288.814102,65.1993281 289.071877,64.9166432 291.083152,64.4071774 C289.900327,64.5891295 288.439777,64.8132733 285.944452,65.1972185 C286.762927,65.1655747 288.048652,65.5157664 286.931452,65.6829514 C285.366952,65.6476158 284.827252,65.6249377 284.196727,65.6312664 C283.566202,65.6328486 282.847477,65.6507801 280.923352,65.5853829 C282.169702,65.5911842 280.828852,66.2831295 278.856952,66.3722596 C279.159352,66.2646705 278.659552,65.7857938 279.376177,65.6834788 L274.506802,66.5436637 C275.724277,66.37015 274.695277,66.0299788 273.589627,65.9223897 C274.104652,66.0104651 269.351302,66.1433692 268.047727,66.2731089 L270.133027,66.2968418 C264.593752,66.5083281 264.710302,67.4354925 259.216177,67.684424 C259.875052,67.527787 260.819527,66.8469171 258.022852,66.9160062 C256.758652,67.2851842 252.429502,68.6664377 247.580602,69.1495336 L246.639277,69.021376 L242.919652,69.3984651 C245.220727,68.836787 251.688727,67.5446637 255.226177,66.9856226 C253.148227,66.9545062 254.639227,66.8105267 251.537527,66.9856226 C250.433977,66.8796158 253.215952,66.6523075 254.128402,66.595876 L246.901252,66.8606295 C247.239877,67.1992185 241.395052,67.481376 241.684852,67.7635336 L249.512077,67.0119925 C249.847552,67.3532185 245.025427,68.2455747 239.903002,68.4259445 C238.594177,68.3478897 240.846952,67.7487664 240.734602,67.6359034 C240.076252,67.7899034 235.887802,68.1021226 235.413727,68.0388349 L237.575677,67.7445473 C234.720202,67.7456021 232.947802,68.4444034 229.507477,68.2582322 C228.324652,68.2888212 225.957952,67.9607801 225.763177,68.17965 C227.708827,68.4971432 228.142477,69.7301979 226.870927,70.0914651 C226.455127,70.0830267 220.645477,69.983876 219.286777,69.8446432 C217.326427,69.6152253 222.176377,68.9580884 220.506877,68.7603144 C220.440202,68.8605199 219.370252,69.0277048 218.923477,69.0862459 C217.678702,69.0593486 219.424327,68.7634788 216.728977,68.9285541 C216.294277,69.3124993 211.240627,69.1294925 215.466877,69.2887664 C212.831902,69.5013075 212.659177,69.332013 209.560627,69.4765199 C210.557077,69.6674377 206.811202,70.382061 204.170452,70.5946021 C204.322702,70.4965062 203.724202,70.4026295 203.434402,70.3599103 C198.023227,70.558739 195.111577,70.4912322 190.066327,70.6858418 C189.598027,70.6167527 187.159927,70.60515 188.190502,70.4105404 C187.467577,70.5017801 186.805552,70.6494514 185.249452,70.7174856 C182.226502,70.5223486 188.717077,70.536061 186.407602,70.2512664 C186.219652,70.4690815 182.393977,70.6932253 180.182152,70.8973281 C180.875677,71.1984719 185.306152,70.7786637 187.520077,70.558739 C187.547377,71.0022801 183.700702,71.6224993 178.432327,72.0080267 C174.243877,72.2653966 176.604802,71.7838829 175.879252,71.873013 C168.002677,72.0697322 169.197052,72.8919445 162.646627,72.7764445 C160.042627,72.5760336 162.511177,72.2163486 161.929477,72.0307048 C165.340927,71.8123623 167.178427,72.0486363 169.492627,71.95265 L166.638202,71.9152048 C167.721802,71.7896842 169.998727,71.6335747 171.243502,71.6736568 C169.061077,71.5080541 157.938952,72.0560199 151.856302,72.0175199 C150.780052,72.1440952 148.919452,72.2949308 149.804602,72.384061 L151.725577,72.2896568 C153.499552,72.4663349 148.116727,72.7099925 150.553252,72.7463829 C147.979177,72.9805473 145.095352,73.3154445 141.460252,73.2901295 L140.769352,72.9858212 C140.849677,73.0781158 143.147602,73.1108144 144.165577,72.9831842 C142.655677,73.1698829 138.586402,72.7047185 136.939477,73.1751568 L139.490977,73.3265199 C136.905877,73.5664856 133.713352,73.9926226 130.491952,73.9699445 C131.965102,74.2521021 131.233252,73.9145678 133.530127,74.2304788 C131.535127,73.8238555 141.763702,74.0274308 138.565402,73.6250267 C140.923702,73.9915678 142.632052,73.693061 145.710127,73.9752185 C145.611952,73.8713212 144.617602,73.8022322 147.320827,73.7774445 C147.442102,73.7431637 147.728752,73.6951705 147.910927,73.6666911 C147.993352,73.6677459 148.022752,73.6682733 148.093627,73.6693281 C148.039552,73.6666911 147.999127,73.6640541 147.944002,73.6608897 C148.060552,73.6419034 148.071052,73.6382116 147.888352,73.6582527 C147.243652,73.6303007 146.720752,73.5886363 146.507602,73.5353692 C147.841102,73.2511021 152.137702,73.1414034 153.586177,72.9631432 C155.190577,72.9631432 152.919427,73.1071226 153.797752,73.1930884 L155.961802,72.9346637 C156.184402,73.1646089 160.232677,73.1920336 156.461077,73.4509856 L159.859927,73.3534171 C161.865427,73.4230336 164.620102,73.3882253 166.313752,73.2342253 C167.918677,73.2379171 170.354152,72.8334034 168.963952,73.06915 L174.289027,72.7358349 L174.340477,72.7933212 C179.600452,72.6409034 185.151277,72.0238486 191.178277,72.2137116 C192.946477,72.0860815 194.772952,71.9426295 197.737102,71.8967459 L198.322477,72.0792253 C200.592052,71.922061 205.155352,72.0027527 206.123452,71.7506568 C208.597777,72.1994719 217.158952,71.4168144 221.158402,71.3255747 L221.297527,71.0513281 C224.049052,70.9432116 226.683502,70.7491295 230.092852,70.4885952 L229.871827,70.2618144 C232.807102,69.9369377 237.446527,70.068787 242.101177,69.8230199 C241.788802,69.9284993 240.607027,69.9617253 239.769127,69.9469582 C245.357227,70.22015 251.483977,68.985513 256.546552,69.1105062 C257.798677,68.9601979 258.710602,68.9427938 259.594702,68.9570336 C259.477627,68.9633623 259.373152,68.9733829 259.283902,68.985513 C259.412527,68.9791842 259.603627,68.9707459 259.799977,68.9617801 C260.357002,68.9728555 260.930827,68.9849856 261.552427,68.9976432 C261.022702,68.9670541 260.516602,68.9459582 260.077177,68.9464856 C261.045802,68.8911089 262.514752,68.7882664 263.952202,68.6521979 L264.579052,68.8721226 C264.696127,68.8631568 264.790102,68.8563007 264.911902,68.8468075 C266.330977,68.8631568 266.042227,68.6643281 265.277827,68.5150747 C266.000752,68.4338555 266.663302,68.3473623 267.175177,68.2577048 C268.345402,68.6042048 270.947302,67.9133144 272.538577,68.2640336 C273.498277,67.9971705 279.772027,67.7107938 280.515952,67.2155678 C280.568452,67.2704171 280.995277,67.2741089 280.216702,67.3226295 C281.826877,67.2814925 283.444402,67.2282253 284.880802,66.9724377 L285.596377,67.2303349 C285.596377,67.2303349 286.470502,67.0383623 287.338852,66.8226568 C288.207727,66.6069514 289.068202,66.364876 289.068202,66.364876 C290.148127,66.3026432 290.914627,66.2219514 291.154552,66.2641432 C291.392902,66.301061 291.105727,66.4592801 290.059927,66.7720267 C292.602502,66.1201637 293.607877,65.7625884 294.528202,65.4719925 C294.982327,65.3026979 295.420702,65.1692664 295.986652,64.9171705 C296.552602,64.670876 297.269752,64.3702596 298.232077,63.795924 L298.121302,64.0812459 C298.838452,63.718924 299.767177,63.2426842 300.545752,62.6752048 C300.946852,62.4136158 301.330627,62.1625747 301.664527,61.9442322 C301.987402,61.7100678 302.270902,61.524424 302.491402,61.4189445 C302.876752,61.1916363 303.420652,60.8941842 303.994477,60.4137253 C304.582477,59.9517253 305.283877,59.4085062 305.974252,58.6986295 C306.709252,58.0325267 307.410652,57.1908007 308.174527,56.3053007 C308.878552,55.3728623 309.636127,54.3834651 310.287127,53.2706568 C311.631127,51.0740473 312.763027,48.5404308 313.513777,45.9530199 C313.678627,45.3001021 313.880227,44.6598418 314.013052,44.0111432 C314.136952,43.3592801 314.259802,42.7158555 314.380027,42.0835062 C314.453527,41.4432459 314.525977,40.814061 314.596327,40.2006979 C314.674552,39.5868075 314.657752,38.9813555 314.695552,38.3975267 C314.540677,38.8510884 314.481352,38.8036226 314.472427,38.4787459 C314.464552,38.1533418 314.520202,37.5463075 314.486602,36.8696568 C314.516002,35.5073897 314.291302,33.8856432 314.031427,33.7501021 C314.092852,33.1915884 313.901752,31.8936637 314.319652,33.3545541 C314.221477,32.7633418 314.027752,32.2338349 313.897552,31.7212048 C313.750552,31.2127938 313.641352,30.7249514 313.494877,30.2745541 C313.172002,29.3858897 312.929977,28.5663144 312.623902,27.823739 C312.297352,27.0911842 311.994952,26.3944925 311.638477,25.7225884 C311.247352,25.0701979 310.827877,24.4278281 310.342252,23.7691089 C310.192627,23.2232527 311.026327,24.5417459 310.858852,24.0792185 C310.667752,23.7443212 309.950077,22.8672596 309.751102,22.4052596 C309.554227,21.9527527 310.237777,22.9173623 310.708702,23.5159582 C310.020427,22.5081021 309.500152,21.7143692 309.007177,21.165876 C308.517352,20.6147459 308.139352,20.2424034 307.839577,19.9903075 C307.246852,19.4808418 306.912952,19.4966637 306.649927,19.4956089 C306.289252,19.0135678 305.965852,18.5948144 305.663452,18.2224719 C305.355802,17.854876 305.042902,17.5579514 304.749952,17.2721021 C304.453327,16.9894171 304.161427,16.7325747 303.855352,16.4831158 C303.546127,16.2373486 303.200677,16.0232253 302.833177,15.7869514 C302.299252,15.1361432 301.334302,14.0987527 303.590227,16.0116226 C303.278377,15.7368486 302.662552,15.1593486 301.882927,14.480061 C301.069702,13.8450747 300.139927,13.042376 299.155552,12.3968418 C298.668877,12.0672185 298.204252,11.7238829 297.745402,11.4485815 C297.286552,11.1743349 296.860252,10.9254034 296.492227,10.7181363 C295.762477,10.2914719 295.234327,10.0878966 295.158202,10.1390541 C294.744502,9.81470479 293.135377,9.01569795 292.711702,8.89281438 C291.050602,8.06691027 290.097727,7.72779384 289.177402,7.33330068 C288.713827,7.14660205 288.240802,6.99471164 287.676427,6.79377329 C287.393452,6.69620479 287.086327,6.59019795 286.742452,6.47153356 C286.393852,6.3676363 286.009027,6.2526637 285.574327,6.12292397 L286.519852,6.46784178 C285.772777,6.45518425 285.051952,6.25371849 284.159452,5.96839658 C283.257502,5.72210205 282.195952,5.33288288 280.764802,5.06074589 L280.854577,5.03806781 C277.619527,4.18790342 276.887152,4.1546774 276.184702,4.06607466 C275.478052,3.98960205 274.792927,3.86935548 271.539502,3.34037603 L271.868677,3.62833493 C271.533202,3.87304726 270.102577,3.62042397 268.264027,3.36358151 C266.427577,3.09197192 264.182677,2.81245137 262.276402,2.84356781 L263.642977,3.04661575 C261.565552,3.13047192 257.858527,2.1131226 255.769027,2.02610205 C255.314377,1.97230753 256.488277,1.96123219 257.124577,1.93591712 C251.664577,1.54195137 256.410577,2.25393767 252.344452,2.2876911 C251.596327,2.10310205 253.313077,1.84098562 250.579927,1.7856089 C249.221227,1.62686233 242.652952,2.27767055 238.930177,1.89372534 C239.749702,2.04086918 240.563452,2.18748562 238.677127,2.26975959 C235.787002,2.29507466 230.874052,1.62844452 228.257977,2.02557466 C227.891002,1.98180068 227.752927,1.94330068 227.738227,1.90901986 C225.527977,1.98760205 220.557277,1.97705411 219.222202,2.18168425 C217.197802,1.26875959 205.481902,2.33990342 205.546477,1.53034863 L198.750877,1.43172534 L198.930427,1.35261575 C194.588677,1.2086363 193.048327,1.37054726 191.517427,1.53245822 C190.514677,1.45704041 191.249152,1.39691712 191.333152,1.35683493 C184.989577,1.06571164 184.357477,1.08258836 179.028202,1.3816226 L178.480102,1.11001301 C177.034252,1.24238973 169.309927,0.519855479 163.077127,0.739780137 C163.139077,0.710773288 163.268752,0.66225274 163.763827,0.632191096 C160.258402,0.736615753 156.067852,0.496122603 152.429602,0.345286986 C148.791352,0.21554726 145.706452,0.170718493 144.419152,0.636410274 L139.793902,0.834184247 C145.774702,0.956013014 138.900877,1.23975274 141.360502,1.41801301 C139.008502,1.44491027 135.281002,1.10737603 138.171652,1.05885548 L138.623677,1.10737603 C139.687852,0.609513014 131.190727,0.929643151 131.351902,0.591581507 C119.579302,0.585780137 108.098602,0.501923973 97.0657275,0.736615753 L98.3467275,1.09524589 C98.3467275,1.09524589 97.3849275,1.11106781 96.4231275,1.12741712 C95.4613275,1.15484178 94.5000525,1.18226644 94.5000525,1.18226644 C93.4878525,1.12741712 93.1361025,0.927533562 95.8808025,0.84895137 C94.4307525,0.680184247 91.2839025,1.19070479 91.2088275,1.27719795 C85.8307275,1.30673219 93.2925525,0.755074657 91.6445775,0.803067808 L89.4075525,0.909074657 L89.9136525,0.936499315 C88.1050275,1.15695137 87.9506775,1.32941027 84.6521025,1.42434178 C82.5620775,1.41906781 83.5716525,1.22340342 82.7495025,1.23658836 C82.7531775,1.20758151 82.4754525,1.20758151 81.4895025,1.2866911 L76.6437525,1.49501301 L78.5946525,1.70280753 C76.4552775,1.95965 74.0408025,1.91376644 76.2914775,2.14687603 C75.4651275,2.0551089 73.9226775,2.05352671 72.0416025,2.10204726 C71.1013275,2.13421849 70.0760025,2.17008151 69.0134025,2.20647192 C67.9513275,2.25762945 66.8530275,2.33621164 65.7647025,2.40582808 C61.4103525,2.69642397 57.2177025,3.02130068 56.2055025,3.00653356 C53.2182525,3.43108836 50.2614525,3.72221164 46.5911775,3.9996226 C47.5083525,3.98380068 48.0827025,4.27808836 44.9180025,4.50908836 C45.4645275,4.10721164 44.0097525,4.15573219 42.0924525,4.26859521 C40.1741025,4.36880068 37.8032025,4.6346089 36.4996275,4.50645137 C38.8148775,4.5971637 27.5289525,5.55228014 31.1609025,5.64404726 C28.5201525,5.86977329 30.9713775,5.39880753 28.9538025,5.44785548 C27.3924525,5.68149247 25.7513025,5.88032123 24.0272025,6.12397877 C22.3057275,6.36288973 20.5065525,6.65137603 18.6722025,7.11179384 C16.8473025,7.58908836 14.9636025,8.22671164 13.2179775,9.24933493 C11.4597525,10.2366226 9.8401275,11.5329651 8.4578025,13.045013 C8.4515025,13.1257048 8.6930025,12.9279308 8.8205775,12.9031432 C8.9444775,12.8741363 8.9103525,12.9790884 8.3932275,13.6768349 C8.3932275,13.6768349 8.1947775,13.8572048 7.8971025,14.1272322 C7.5973275,14.3972596 7.2419025,14.7949171 6.8628525,15.1804445 C6.4785525,15.5622801 6.1577775,15.9915815 5.8874025,16.2958897 C5.6233275,16.6044171 5.4563775,16.8174856 5.4563775,16.8174856 C4.6851525,18.2377664 5.1072525,18.3137116 3.5910525,20.7966979 C3.8330775,20.4549445 4.1921775,19.9539171 3.7774275,20.9285473 C2.0932275,24.4636911 1.0421775,28.3258212 0.5009025,32.2470199 C-0.0393225,36.1687459 -0.1710975,40.184876 0.2457525,44.1661979 C0.6515775,48.1448829 1.5498525,52.0966705 3.0487275,55.8269514 C3.7910775,57.6913007 4.6741275,59.509239 5.6999775,61.2433212 C6.7363275,62.9705473 7.9118025,64.6123349 9.2043525,66.1623555 C7.8750525,64.4245815 8.8473525,65.5089103 9.9913275,66.7039925 C9.2857275,65.8891637 10.1714025,66.5621226 10.1157525,66.3195199 C10.1157525,66.3195199 10.1829525,66.3986295 10.3010775,66.5378623 C10.4255025,66.670239 10.6034775,66.8595747 10.8166275,67.0863555 C11.0318775,67.3131363 11.2833525,67.5773623 11.5521525,67.8605747 C11.8356525,68.1306021 12.1380525,68.4180336 12.4404525,68.7054651 C13.0457775,69.2824377 13.7036025,69.8029788 14.1839775,70.2101295 C14.6874525,70.5893281 15.0234525,70.8419514 15.0234525,70.8419514 C15.6125025,71.0608212 17.1560025,71.9684719 18.7126275,72.7205404 C20.2860525,73.4383281 21.8715525,73.9683623 22.2537525,73.8998007 C22.2537525,73.8998007 22.1251275,73.8713212 21.9350775,73.8154171 C21.7471275,73.754239 21.4967025,73.6730199 21.2457525,73.5918007 C20.9948025,73.5105815 20.7438525,73.4288349 20.5553775,73.3676568 C20.3658525,73.3091158 20.2435275,73.2595404 20.2435275,73.2595404 C20.9360025,73.4161774 21.0704025,73.3433966 20.8924275,73.1683007 C20.8052775,73.077061 20.6367525,72.9668349 20.4299025,72.8212733 C20.2246275,72.6714925 19.9752525,72.5011432 19.7111775,72.3234103 C19.1756775,71.9842938 18.6118275,71.5549925 18.2144025,71.2127116 C17.8117275,70.8783418 17.5891275,70.6056774 17.7366525,70.5408075 C16.3217775,70.0054993 14.7273525,68.7671705 13.1444775,67.2240062 C11.5505775,65.6776774 9.9771525,63.8391705 8.2682775,62.0486568 C7.6986525,61.1225473 8.9549775,62.6899719 8.6993025,62.1562459 C7.7879025,61.2997527 6.8481525,60.0841021 5.6501025,57.5663075 L5.8448775,57.8199856 C4.9466025,56.085376 4.3013775,54.5258623 3.8257275,53.0449308 C3.3474525,51.5645267 2.9867775,50.1758897 2.7232275,48.7376774 C2.4371025,47.3036842 2.2591275,45.8180062 2.1210525,44.147739 C1.9824525,42.4758897 1.9478025,40.6089034 2.0307525,38.4075473 L1.7693025,39.0573007 C1.7992275,38.105876 1.8464775,37.5315404 1.9089525,37.0848349 C1.9688025,36.6381295 2.0087025,36.3179993 2.0806275,35.8776226 C1.9913775,34.7753623 1.8485775,36.1044034 1.7819025,37.4661432 C1.7189025,38.8257733 1.7000025,40.2149377 1.5026025,39.2155199 C1.5719025,38.8990815 1.6286025,38.4518486 1.6753275,37.9086295 C1.7346525,37.3664651 1.7945025,36.727787 1.8533025,36.0279308 C1.9992525,34.6292733 2.1725025,32.9837938 2.4465525,31.3768144 C2.9605275,28.1618007 3.9317775,25.1588007 4.4945775,24.4710747 C4.9697025,23.1093349 4.8563025,23.2918144 4.7014275,23.4595267 C4.5649275,23.6346226 4.4048025,23.8023349 4.9513275,22.4585267 C4.9513275,22.4585267 5.0589525,22.295561 5.1665775,22.1325952 C5.2710525,21.9685747 5.3918025,21.8135199 5.3918025,21.8135199 L5.5141275,21.0661979 C5.9162775,20.2044308 6.3341775,19.6195473 6.6066525,19.2203075 C6.9132525,18.8405815 7.1122275,18.6649582 7.1867775,18.6691774 C7.0665525,18.86115 6.9032775,19.1380336 6.7568025,19.4296842 C6.6166275,19.7255541 6.4748775,20.0245884 6.3704025,20.244513 C6.9778275,19.1907733 7.8635025,17.7462322 8.7234525,16.5289993 C8.9444775,16.2294377 9.1581525,15.9388418 9.3581775,15.6677596 C9.5744775,15.4109171 9.7766025,15.1714788 9.9566775,14.9578829 C10.3089525,14.5217253 10.6187025,14.233239 10.7746275,14.1013897 C10.7384025,14.056561 8.8741275,16.0132048 8.9108775,16.0522322 C10.0695525,14.5117048 11.5112025,13.0576705 13.2074775,11.8868486 C13.6164525,11.5704103 14.0763525,11.3320267 14.5210275,11.0630541 C14.9636025,10.7898623 15.4340025,10.5625541 15.9122775,10.3457938 C16.8688275,9.91121849 17.8731525,9.55364315 18.9011025,9.2561911 C20.9596275,8.66023219 23.1074025,8.30529384 25.2173775,8.00151301 C27.3294525,7.69404041 29.4095025,7.45407466 31.3399275,7.15873219 L30.7372275,7.10493767 C36.6524025,6.26110205 35.5037025,6.70200616 42.0158025,5.94571849 L41.7811275,5.99423904 C43.0773525,5.76482123 44.8182525,5.55491712 46.6074525,5.41410205 C44.9705025,5.69415 49.7338275,5.41410205 47.5839525,5.7526911 C54.0141525,4.96475959 50.7575775,5.29174589 54.9864525,4.49326644 L55.9855275,4.62195137 C57.4271775,4.34823219 57.5421525,4.24697192 60.8076525,3.97694452 C58.1385525,4.32449932 62.9139525,4.1346363 59.9267025,4.55708151 C63.3686025,4.54073219 65.9054025,4.26226644 67.9817775,4.03970479 C70.0586775,3.82505411 71.6772525,3.70586233 73.2674775,3.93369795 C76.3912275,3.23595137 67.3108275,3.92947877 69.0701025,3.72590342 C67.5812025,3.62306096 71.6499525,3.1921774 73.8087525,3.13891027 C76.0043025,3.04450616 77.5730025,3.63888288 83.0865525,3.3651637 C82.5374025,3.37993082 82.5022275,3.42845137 81.9546525,3.45218425 C84.0242025,3.49543082 85.9940025,3.11886918 88.5355275,3.25071849 C89.9441025,2.87468425 91.8251775,3.15578699 92.2210275,2.72437603 L87.1605525,2.99598562 C90.0265275,2.79241027 92.7040275,2.19539658 97.4432025,2.29085548 C97.0762275,2.37682123 95.6718525,2.53398562 94.7069025,2.63102671 C96.0929025,2.70011575 97.3681275,2.46278699 98.8055775,2.56351986 C98.4071025,2.96645137 92.6531025,2.83301986 89.5886775,3.26232123 C91.0781025,3.38731438 95.3957025,2.75918425 93.8642775,3.26495822 C96.0677025,2.59621849 99.3038025,3.18479384 103.032352,2.66741712 L102.791377,2.9226774 C103.382002,2.87099247 104.605777,2.72648562 105.694627,2.7101363 L103.730077,3.07615 C106.751452,2.74547192 109.568077,3.1731911 112.469752,3.00495137 C106.390252,3.09724589 111.100552,2.72015685 108.527002,2.58197877 C116.022952,2.12788973 112.849327,3.18268425 121.242502,2.97172534 C120.106402,3.0181363 116.974252,2.86202671 118.750852,2.7291226 C120.349477,2.76551301 122.461027,2.84145822 123.442777,2.96328699 C129.005677,2.89050616 122.587027,2.70064315 124.954777,2.54189658 C126.850552,2.84725959 127.686877,2.41848562 130.126552,2.32091712 L130.144402,2.57565 C136.485352,2.73967055 131.825977,2.04561575 137.535877,2.24391712 L135.121402,2.59621849 L138.098152,2.50550616 L137.483377,2.79504726 C140.721577,2.58988973 141.730627,2.66530753 144.902677,2.76815 C144.166627,2.58303356 145.320577,2.30984178 148.130377,2.3246089 C150.045052,2.49126644 147.055177,2.55771849 151.037302,2.55349932 C150.136927,2.70538973 149.149927,2.89736233 147.419527,2.64895822 C147.241552,2.73070479 146.531752,2.80137603 146.348002,2.88206781 C148.409677,3.07351301 151.531852,2.9601226 152.973502,2.97541712 C152.418577,2.95643082 151.755502,2.94008151 151.415827,2.90052671 L157.192402,2.62258836 C158.100127,2.73070479 157.378252,2.79715685 156.663202,2.86255411 C157.832902,2.85147877 158.643502,2.74547192 160.362877,2.7481089 C159.914527,2.94851986 160.018477,3.16317055 157.584052,3.22645822 L163.086577,3.07404041 C163.452502,3.16949932 165.905302,3.36094452 165.190252,3.42686918 C168.236302,3.59352671 172.676227,3.15842397 176.716102,3.38995137 C176.927152,3.35356096 177.349252,3.32297192 178.209202,3.30925959 C182.007577,3.4231774 185.369677,3.75332808 189.879427,3.55924589 L192.427252,3.98221849 C195.956302,3.97061575 188.976952,3.44480068 194.853802,3.42528699 C199.014952,3.39364315 196.399927,3.77389658 197.856277,3.90732808 C199.928977,3.76387603 203.532577,3.45851301 207.346702,3.84034863 C206.080927,3.88359521 205.090252,3.8081774 203.907952,3.81081438" id="Fill-119" fill="#FFFFFF" mask="url(#mask-10)"></path>
                    </g>
                    <path d="M302.680748,17.8075614 C302.453566,17.5313203 302.426791,17.4151735 302.412187,17.3076592 C301.989466,17.035342 301.931859,17.0847829 302.680748,17.8075614" id="Fill-122" fill="#FFFFFF"></path>
                    <path d="M176.993224,3.66818699 L176.78902,3.66008425 C176.676384,3.68115137 176.615609,3.70383904 176.582385,3.72733699 L176.993224,3.66818699 Z" id="Fill-124" fill="#FFFFFF"></path>
                    <path d="M218.95251,68.9772483 C219.75681,68.9780586 220.20726,69.0185722 220.507035,69.0720503 C220.547985,68.9731969 220.180485,68.9180983 218.95251,68.9772483" id="Fill-126" fill="#FFFFFF"></path>
                    <path d="M137.8881,74.5337849 L140.38815,74.3223034 C139.17855,74.3944178 138.7449,74.3279753 138.13275,74.2931336 C138.189975,74.3822637 138.67035,74.4932712 137.8881,74.5337849" id="Fill-128" fill="#FFFFFF"></path>
                    <path d="M116.13567,73.4195 C115.770795,73.4794603 115.36077,73.4511007 115.00062,73.5118712 L115.10352,73.6901315 C116.660145,73.6253096 117.746895,73.4421877 116.13567,73.4195" id="Fill-130" fill="#FFFFFF"></path>
                    <path d="M135.549488,73.7338878 C135.345263,73.4130193 133.778138,73.5856077 132.027263,73.7144412 C132.132788,73.7103899 132.232538,73.7063385 132.337013,73.7022871 C131.828288,74.1819693 133.693088,73.9575234 135.549488,73.7338878" id="Fill-132" fill="#FFFFFF"></path>
                    <path d="M131.621018,73.6747603 C131.081318,73.7112226 130.530068,73.7412027 130.001393,73.7460644 C129.799268,73.9380993 130.658693,73.7590288 131.621018,73.6747603" id="Fill-134" fill="#FFFFFF"></path>
                    <path d="M153.621878,73.7382348 C152.789753,73.6943089 153.108953,74.1856286 152.635928,74.0741868 C151.716653,74.5394764 158.165753,73.2940948 153.621878,73.7382348" id="Fill-136" fill="#FFFFFF"></path>
                    <polygon id="Fill-138" fill="#FFFFFF" points="134.112195 73.0009575 134.747445 73.3825966 135.72342 73.017163"></polygon>
                    <path d="M147.950828,72.8053459 L145.149428,72.8158795 C145.193003,72.8823219 144.838103,72.9374205 144.401828,72.9868473 C146.126978,72.9252664 148.019078,72.9228356 147.950828,72.8053459" id="Fill-140" fill="#FFFFFF"></path>
                    <path d="M144.401775,72.9236411 C143.502975,72.9552418 142.648275,73.0014274 142.15005,73.0897473 C142.635675,73.0638185 143.681475,73.0046685 144.401775,72.9236411" id="Fill-142" fill="#FFFFFF"></path>
                    <polygon id="Fill-144" fill="#FFFFFF" points="137.936873 72.8206212 138.765848 72.8692377 140.742998 72.8125185"></polygon>
                    <path d="M178.042043,72.0273419 L181.093868,71.7461768 C181.402043,71.5906042 180.567293,71.5500905 179.431193,71.6667699 C178.702493,71.8037062 177.570593,71.9179549 178.042043,72.0273419" id="Fill-146" fill="#FFFFFF"></path>
                    <path d="M168.77994,71.5747895 C169.607865,71.6146482 169.66509,71.7025001 170.133915,71.8115015 L170.215815,71.3014726 L168.77994,71.5747895 Z" id="Fill-148" fill="#FFFFFF"></path>
                    <path d="M177.683993,71.2523092 C177.984818,71.0959263 182.107118,70.613003 178.236818,70.8528441 C177.930218,71.0084167 174.874193,71.2887715 177.683993,71.2523092" id="Fill-150" fill="#FFFFFF"></path>
                    <polygon id="Fill-152" fill="#FFFFFF" points="223.712318 69.6543055 222.935843 69.6989341 223.071293 70.3068479"></polygon>
                    <path d="M264.184673,66.3877651 C260.562698,66.4645727 263.343623,66.848611 260.067623,66.8595835 C259.224998,67.0680615 262.745123,66.8518382 261.880448,67.0403074 C264.056048,66.742113 265.205798,66.7498583 264.184673,66.3877651" id="Fill-154" fill="#FFFFFF"></path>
                    <path d="M261.880448,66.9210164 C261.531848,66.9809767 261.162773,67.04985 260.770598,67.1341185 C261.401123,67.0328342 261.697223,66.9696329 261.880448,66.9210164" id="Fill-156" fill="#FFFFFF"></path>
                    <path d="M18.84204,73.5482377 C18.84204,73.5482377 19.392765,73.8166829 19.944015,74.0851281 C20.21859,74.2222514 20.508915,74.3235116 20.72049,74.4158062 C20.934165,74.5028267 21.07644,74.5608404 21.07644,74.5608404 C21.07644,74.5608404 20.718915,74.3857445 20.36139,74.2101212 C20.181315,74.1267925 20.008065,74.0286966 19.87944,73.9527514 C19.75029,73.8783884 19.66419,73.828813 19.66419,73.828813 L18.84204,73.5482377 Z" id="Fill-158" fill="#FFFFFF"></path>
                    <path d="M23.36418,74.7268651 L23.59833,75.064565 C23.71908,75.2216175 23.840355,75.3794074 23.840355,75.3794074 L25.331355,75.3698221 C24.79638,75.2267789 23.74323,74.9974674 23.36418,74.7268651" id="Fill-160" fill="#FFFFFF"></path>
                    <path d="M253.89861,5.49906575 L254.076585,5.37509384 C253.71696,5.23329589 253.17516,5.21141849 252.08316,5.17819726 L253.89861,5.49906575 Z" id="Fill-162" fill="#FFFFFF"></path>
                    <polygon id="Fill-164" fill="#FFFFFF" points="222.305318 4.88403742 222.849218 4.90925416 221.838593 4.40329247"></polygon>
                    <path d="M195.788618,4.6641222 C196.870118,4.71841056 198.143243,4.65358864 199.229468,4.70868727 C196.870118,4.71841056 195.504068,4.06208864 195.788618,4.6641222" id="Fill-166" fill="#FFFFFF"></path>
                </g>
            </g>
        </g>
    </g>
</svg>