<?xml version="1.0" encoding="UTF-8"?>
<svg width="26px" height="26px" viewBox="0 0 26 26" version="1.1" xmlns="http://www.w3.org/2000/svg" xmlns:xlink="http://www.w3.org/1999/xlink">
    <!-- Generator: Sketch 41.2 (35397) - http://www.bohemiancoding.com/sketch -->
    <title>Stroke 11 Copy 3</title>
    <desc>Created with Sketch.</desc>
    <defs></defs>
    <g id="Website" stroke="none" stroke-width="1" fill="none" fill-rule="evenodd" stroke-linejoin="round">
        <g id="Desktop-HD-Copy-20" transform="translate(-1315.000000, -10520.000000)" stroke="#FFFFFF">
            <g id="footer" transform="translate(0.000000, 10483.000000)">
                <g id="Group-24" transform="translate(100.000000, 37.000000)">
                    <path d="M1240,5.00034326 C1240,2.89822363 1238.10246,1 1235.99966,1 L1219.99966,1 C1217.89754,1 1216,2.89822363 1216,5.00034326 L1216,20.9996567 C1216,23.1017764 1217.89754,25 1220.00034,25 L1227.99966,25 L1227.99966,15.9331503 L1225.06685,15.9331503 L1225.06685,11.9334935 L1227.99966,11.9334935 L1227.99966,10.3750965 C1227.99966,7.68737664 1230.01802,5.26671243 1232.49979,5.26671243 L1235.73329,5.26671243 L1235.73329,9.26705569 L1232.49979,9.26705569 C1232.14623,9.26705569 1231.73294,9.69612975 1231.73294,10.3400841 L1231.73294,11.9334935 L1235.73329,11.9334935 L1235.73329,15.9331503 L1231.73294,15.9331503 L1231.73294,25 L1235.99966,25 C1238.10246,25 1240,23.1017764 1240,20.9996567 L1240,5.00034326 L1240,5.00034326 Z" id="Stroke-11-Copy-3"></path>
                </g>
            </g>
        </g>
    </g>
</svg>