<?xml version="1.0" encoding="UTF-8"?>
<svg width="27px" height="27px" viewBox="0 0 27 27" version="1.1" xmlns="http://www.w3.org/2000/svg" xmlns:xlink="http://www.w3.org/1999/xlink">
    <!-- Generator: Sketch 41.2 (35397) - http://www.bohemiancoding.com/sketch -->
    <title>Group 19</title>
    <desc>Created with Sketch.</desc>
    <defs></defs>
    <g id="Website" stroke="none" stroke-width="1" fill="none" fill-rule="evenodd" stroke-linejoin="round">
        <g id="Desktop-HD-Copy-20" transform="translate(-1134.000000, -10519.000000)" stroke="#FFFFFF" stroke-width="0.9415">
            <g id="footer" transform="translate(0.000000, 10483.000000)">
                <g id="Group-24" transform="translate(100.000000, 37.000000)">
                    <g id="Group-19" transform="translate(1035.000000, 0.000000)">
                        <path d="M14.9989951,12.6291667 C15.8399674,12.4881944 16.7024674,12.4118056 17.5830229,12.4118056 C20.0219118,12.4118056 22.3288563,12.9736111 24.3837174,13.9736111 C24.4413563,13.4895833 24.4746896,12.9972222 24.4746896,12.4972222 C24.4746896,9.61319444 23.481634,6.96180556 21.8226063,4.86111111 C19.3413563,6.82222222 16.537884,8.39166667 13.500384,9.47291667 C14.0364951,10.5041667 14.5427451,11.5527778 14.9989951,12.6291667 L14.9989951,12.6291667 Z" id="Stroke-13-Copy"></path>
                        <path d="M15.5017729,12.8784722 C15.0455229,11.8020833 14.5392729,10.7534722 14.0031618,9.72222222 C10.9302451,10.8159722 7.6233007,11.4166667 4.17468959,11.4166667 C2.8983007,11.4166667 1.64343959,11.3256944 0.410106252,11.1673611 C0.343439586,11.6854167 0.305939586,12.2111111 0.305939586,12.7465278 C0.305939586,16.2027778 1.72885625,19.325 4.01843959,21.5645833 C6.16010625,17.0479167 10.4121896,13.7291667 15.5017729,12.8784722 L15.5017729,12.8784722 Z" id="Stroke-15-Copy"></path>
                        <path d="M12.3239951,0 C10.781634,0 9.30593959,0.285416667 7.94482847,0.802777778 C10.1670507,3.4 12.0962174,6.25138889 13.6858007,9.31111111 C16.7226063,8.22986111 19.5260785,6.66041667 22.0080229,4.69930556 C19.7489951,1.83819444 16.2517729,0 12.3239951,0 L12.3239951,0 Z" id="Stroke-17-Copy"></path>
                        <path d="M13.8989951,9.20277778 C12.3101063,6.14305556 10.3802451,3.29166667 8.15802292,0.694444444 C3.98024514,2.28194444 0.890661808,6.07222222 0.305939586,10.6479167 C1.53927292,10.80625 2.79413403,10.8972222 4.07052292,10.8972222 C7.51913403,10.8972222 10.8260785,10.2965278 13.8989951,9.20277778 L13.8989951,9.20277778 Z" id="Stroke-19-Copy"></path>
                        <path d="M15.5837174,12.7173611 C17.0156618,16.0958333 18.0455229,19.6854167 18.6135785,23.4270833 C22.0427451,21.5597222 24.4851063,18.1118056 24.9684396,14.0618056 C22.9135785,13.0618056 20.606634,12.5 18.1677451,12.5 C17.2871896,12.5 16.4246896,12.5763889 15.5837174,12.7173611 L15.5837174,12.7173611 Z" id="Stroke-21-Copy"></path>
                        <path d="M3.77816181,21.1861111 C6.00246736,23.3611111 9.04413403,24.7041667 12.4010785,24.7041667 C14.5344118,24.7041667 16.5406618,24.1625 18.2913563,23.2097222 C17.7226063,19.4680556 16.6934396,15.8777778 15.2614951,12.5 C10.1719118,13.3506944 5.91982847,16.6694444 3.77816181,21.1861111 L3.77816181,21.1861111 Z" id="Stroke-23-Copy"></path>
                    </g>
                </g>
            </g>
        </g>
    </g>
</svg>