<?xml version="1.0" encoding="UTF-8"?>
<svg width="29px" height="25px" viewBox="0 0 29 25" version="1.1" xmlns="http://www.w3.org/2000/svg" xmlns:xlink="http://www.w3.org/1999/xlink">
    <!-- Generator: Sketch 41.2 (35397) - http://www.bohemiancoding.com/sketch -->
    <title>Stroke 9 Copy 4</title>
    <desc>Created with Sketch.</desc>
    <defs></defs>
    <g id="Website" stroke="none" stroke-width="1" fill="none" fill-rule="evenodd" stroke-linejoin="round">
        <g id="Desktop-HD-Copy-20" transform="translate(-1254.000000, -10521.000000)" stroke="#FFFFFF">
            <g id="footer" transform="translate(0.000000, 10483.000000)">
                <g id="Group-24" transform="translate(100.000000, 37.000000)">
                    <path d="M1178.70195,5.63580417 C1179.88858,4.9175163 1180.79666,3.77811457 1181.22702,2.42463489 C1180.11421,3.08940326 1178.88579,3.57248706 1177.5766,3.83445087 C1176.52855,2.70420379 1175.0383,2 1173.3844,2 C1170.2124,2 1167.63997,4.6006246 1167.63997,7.80686446 C1167.63997,8.2617801 1167.69081,8.70542849 1167.789,9.13006338 C1163.01602,8.88781727 1158.78343,6.57521203 1155.95056,3.06123511 C1155.45543,3.91754692 1155.17409,4.91540369 1155.17409,5.98086403 C1155.17409,7.99629528 1156.18872,9.77440985 1157.72841,10.8145188 C1156.78691,10.7828297 1155.90181,10.5208659 1155.12674,10.0856679 L1155.12674,10.1582009 C1155.12674,12.9714951 1157.10724,15.3193105 1159.73329,15.8538012 C1159.25209,15.9847831 1158.74513,16.0573161 1158.22006,16.0573161 C1157.84889,16.0573161 1157.49025,16.0199933 1157.13858,15.9495729 C1157.86978,18.2586571 1159.99095,19.937479 1162.50348,19.9832522 C1160.5383,21.5402468 1158.06058,22.4662748 1155.36978,22.4662748 C1154.90599,22.4662748 1154.44916,22.4374024 1154,22.3859955 C1156.54178,24.0373534 1159.56058,25 1162.80432,25 C1173.37047,25 1179.14624,16.1495668 1179.14624,8.47374545 L1179.12744,7.7216558 C1180.25557,6.90759622 1181.23189,5.88509231 1182,4.72104345 C1180.96936,5.18300113 1179.86351,5.49566762 1178.70195,5.63580417 L1178.70195,5.63580417 Z" id="Stroke-9-Copy-4"></path>
                </g>
            </g>
        </g>
    </g>
</svg>