<?xml version="1.0" encoding="UTF-8"?>
<svg width="250px" height="217px" viewBox="0 0 250 217" version="1.1" xmlns="http://www.w3.org/2000/svg" xmlns:xlink="http://www.w3.org/1999/xlink">
    <!-- Generator: Sketch 41.2 (35397) - http://www.bohemiancoding.com/sketch -->
    <title>Group 36</title>
    <desc>Created with Sketch.</desc>
    <defs></defs>
    <g id="Website" stroke="none" stroke-width="1" fill="none" fill-rule="evenodd">
        <g id="Desktop-HD-Copy-20" transform="translate(-566.000000, -7774.000000)">
            <g id="Group-36" transform="translate(566.000000, 7774.000000)">
                <path d="M140.308732,123.973157 L110.026003,123.973157 C90.6817476,123.973157 75,108.280744 75,88.923333 L75,82.0481878 C75,62.6924126 90.6817476,47 110.026003,47 L140.308732,47 C159.652987,47 175.334735,62.6924126 175.334735,82.0481878 L175.334735,88.923333 C175.334735,108.280744 159.652987,123.973157 140.308732,123.973157" id="Fill-25" fill="#67E5C1"></path>
                <path d="M81.8298875,92.4199865 C81.8298875,96.5185679 78.5107395,99.8399731 74.4149437,99.8399731 C70.320783,99.8399731 67,96.5185679 67,92.4199865 C67,88.3214052 70.320783,85 74.4149437,85 C78.5107395,85 81.8298875,88.3214052 81.8298875,92.4199865" id="Fill-26" fill="#67E5C1"></path>
                <path d="M143.091405,121.557635 C143.091405,131.255157 135.234998,139.11527 125.545703,139.11527 C115.854772,139.11527 108,131.255157 108,121.557635 C108,111.860114 115.854772,104 125.545703,104 C135.234998,104 143.091405,111.860114 143.091405,121.557635" id="Fill-27" fill="#67E5C1"></path>
                <path d="M182.829887,89.4199865 C182.829887,93.5185679 179.51074,96.8399731 175.414944,96.8399731 C171.320783,96.8399731 168,93.5185679 168,89.4199865 C168,85.3214052 171.320783,82 175.414944,82 C179.51074,82 182.829887,85.3214052 182.829887,89.4199865" id="Fill-28" fill="#67E5C1"></path>
                <path d="M163.930005,80.1068731 C143.315317,59.4798013 109.770667,59.4798013 89.1559791,80.1068731 L88,78.9501078 C109.252357,57.6832974 143.833627,57.6832974 165.085984,78.9501078 L163.930005,80.1068731 Z" id="Fill-38" fill="#1267CC"></path>
                <path d="M91.1200114,44.4446056 C91.1200114,44.4446056 120.410265,43.5038135 131.5989,21.5579966 C146.82447,-8.30192719 193.047283,12.6163811 176.106548,40.8532339 C169.442092,51.9627618 155.616124,51.6715252 155.616124,51.6715252 L96.056222,51.6715252 C96.056222,51.6715252 92.2563699,68.7530378 77.9268072,73.5715296 C76.8983619,73.9167594 75.4480741,81.9241275 75.4758699,82.6734889 C76.1446047,99.8875304 57.714341,52.5076031 91.1200114,44.4446056" id="Fill-39" fill="#1267CC"></path>
                <path d="M91.0414386,39.079223 C77.3985962,42.4055367 73.1621862,52.3599354 72.0127473,60.1333325 C70.7096138,68.9342383 73.0183019,77.2933808 74.3492312,79.1226079 C74.4358888,78.7168402 74.5209113,77.9429364 74.4669547,76.5260216 C74.4636846,76.437669 75.5918679,67.2506294 77.4738084,66.6157993 C91.2065785,61.9985552 95.0276862,45.4815179 95.0652923,45.3162657 L95.2075415,44.6748909 L155.423098,44.6748909 C155.570252,44.6503485 168.87464,44.8172368 175.212087,34.2525503 C179.546599,27.028903 179.91939,19.6056442 176.263423,13.3506037 C172.012297,6.08278004 162.900173,1.3886364 153.608194,1.64878587 C148.19455,1.80585725 138.204405,3.84614903 132.135106,15.7508507 C121.163932,37.2663574 92.8547071,38.9925065 91.0414386,39.079223 M74.5192762,81.0483685 C72.1190254,81.0483685 70.7374097,73.4385873 70.5853502,72.556697 C70.0228936,69.2909212 69.0598502,60.8270644 72.27599,52.7935178 C75.4708743,44.8106922 81.6807875,39.6567875 90.7356846,37.4708775 L90.9008244,37.4479712 C91.1885929,37.4381543 119.842813,36.2568466 130.678278,15.0063978 C135.392122,5.7637288 143.732503,0.297317541 153.560778,0.0142618245 C163.420119,-0.304789416 173.13067,4.75585411 177.672834,12.5243428 C181.647636,19.31768 181.271575,27.3332288 176.614958,35.0951728 C169.783726,46.4828479 156.00354,46.3126872 155.405112,46.3110511 L96.5024997,46.3110511 C95.6440994,49.5424675 91.2016733,63.6494408 78.1147473,68.1259751 C77.3838807,69.0994905 76.1003679,75.5345086 76.1003679,76.4703922 C76.1853904,78.643213 76.0774772,80.8912971 74.6402698,81.0418238 C74.5993936,81.0467323 74.5585174,81.0483685 74.5192762,81.0483685" id="Fill-40" fill="#FFFFFF"></path>
                <path d="M1.63504823,215.17185 L98.920418,215.17185 L98.920418,136.63616 L1.63504823,136.63616 L1.63504823,215.17185 Z M0,216.80801 L100.555466,216.80801 L100.555466,135 L0,135 L0,216.80801 Z" id="Fill-45" fill="#FFF466"></path>
                <path d="M195.635048,155.746015 L247.977847,155.746015 L247.977847,113.63616 L195.635048,113.63616 L195.635048,155.746015 Z M194,157.382176 L249.612895,157.382176 L249.612895,112 L194,112 L194,157.382176 Z" id="Fill-46" fill="#67E5C1"></path>
                <path d="M110.668913,123.599363 L140.951641,123.599363 C157.014355,123.599363 170.518219,112.766346 174.649986,98.0130893 C174.558423,98.0114531 174.47013,98 174.378568,98 L78.5712814,98 C78.0366206,98 77.5150402,98.050721 77,98.122712 C81.1661029,112.820339 94.6454405,123.599363 110.668913,123.599363" id="Fill-47" fill="#54D6AE"></path>
                <polygon id="Fill-48" fill="#FFF466" points="121 70 121 100.442397 139.117969 100.442397"></polygon>
                <polygon id="Fill-49" fill="#FFFFFF" points="93.1559791 122.158507 92 121.001742 96.9967074 116 98.1526865 117.156765"></polygon>
                <polygon id="Fill-50" fill="#FFFFFF" points="121 127.071484 122.635048 127.071484 122.635048 120 121 120"></polygon>
                <polygon id="Fill-51" fill="#FFFFFF" points="82.1559791 112.156871 81 111.000106 85.9967074 106 87.1526865 107.156765"></polygon>
                <polygon id="Fill-52" fill="#FFFFFF" points="153.998342 124.156871 149 119.156765 150.155979 118 155.154322 123.000106"></polygon>
                <polygon id="Fill-53" fill="#FFFFFF" points="165.998342 115.158507 161 110.156765 162.155979 109 167.154322 114.001742"></polygon>
                <path d="M112.070934,79.0383495 C112.070934,80.7154137 110.712209,82.076699 109.03465,82.076699 C107.358725,82.076699 106,80.7154137 106,79.0383495 C106,77.3612853 107.358725,76 109.03465,76 C110.712209,76 112.070934,77.3612853 112.070934,79.0383495" id="Fill-56" fill="#231F1F"></path>
                <path d="M146.070934,79.0383495 C146.070934,80.7154137 144.712209,82.076699 143.03465,82.076699 C141.358725,82.076699 140,80.7154137 140,79.0383495 C140,77.3612853 141.358725,76 143.03465,76 C144.712209,76 146.070934,77.3612853 146.070934,79.0383495" id="Fill-57" fill="#231F1F"></path>
                <path d="M7.63341318,168.906443 L89.9302958,168.906443 L89.9302958,153.63616 L7.63341318,153.63616 L7.63341318,168.906443 Z M6,170.542604 L91.5669791,170.542604 L91.5669791,152 L6,152 L6,170.542604 Z" id="Fill-58" fill="#FFF466"></path>
                <path d="M7.63341318,191.90808 L89.9302958,191.90808 L89.9302958,176.63616 L7.63341318,176.63616 L7.63341318,191.90808 Z M6,193.54424 L91.5669791,193.54424 L91.5669791,175 L6,175 L6,193.54424 Z" id="Fill-59" fill="#FFF466"></path>
                <polygon id="Fill-60" fill="#FFF466" points="7 206.63616 50.4644871 206.63616 50.4644871 205 7 205"></polygon>
                <polygon id="Fill-61" fill="#67E5C1" points="247.977847 157.018948 194 113.272933 195.028445 112 249.006293 155.747652"></polygon>
                <polygon id="Fill-62" fill="#67E5C1" points="195.028445 157.018948 194 155.747652 247.977847 112 249.006293 113.272933"></polygon>
                <path d="M125.091809,116.104113 C115.114744,116.104113 107,107.982213 107,98 L108.635048,98 C108.635048,107.079053 116.017291,114.467952 125.091809,114.467952 C134.166326,114.467952 141.548569,107.079053 141.548569,98 L143.183617,98 C143.183617,107.982213 135.068873,116.104113 125.091809,116.104113" id="Fill-68" fill="#1267CC"></path>
            </g>
        </g>
    </g>
</svg>