<?xml version="1.0" encoding="UTF-8"?>
<svg width="97px" height="52px" viewBox="0 0 97 52" version="1.1" xmlns="http://www.w3.org/2000/svg" xmlns:xlink="http://www.w3.org/1999/xlink">
    <!-- Generator: Sketch 41.2 (35397) - http://www.bohemiancoding.com/sketch -->
    <title>Group 2</title>
    <desc>Created with Sketch.</desc>
    <defs></defs>
    <g id="Website" stroke="none" stroke-width="1" fill="none" fill-rule="evenodd">
        <g id="Desktop-HD-Copy-20" transform="translate(-382.000000, -6661.000000)">
            <g id="Group-14" transform="translate(207.000000, 6657.000000)">
                <g id="Group-2" transform="translate(175.333333, 4.000000)">
                    <path d="M24.6364,42.5889 C24.6364,42.5889 24.5784,48.1929 23.5114,49.1229 C22.5064,49.9989 22.0054,50.1709 21.4994,50.5079 C21.3904,50.5809 21.2084,50.9349 21.7154,50.9839 C21.7154,50.9839 30.6824,51.0009 30.7024,50.9839 L39.6894,50.9839 C40.1984,50.9539 40.0144,50.5809 39.9064,50.5079 C39.3994,50.1709 38.8984,49.9989 37.8934,49.1229 C36.8264,48.1929 36.7684,42.5889 36.7684,42.5889" id="Stroke-1" stroke="#FFFFFF" stroke-width="1.344" stroke-linejoin="round"></path>
                    <path d="M60.1074,0.475 L1.2984,0.475 C0.5844,0.475 0.000400000001,1.059 0.000400000001,1.773 L0.000400000001,41.304 C0.000400000001,42.018 0.5844,42.602 1.2984,42.602 L60.1074,42.602 C60.8214,42.602 61.4054,42.018 61.4054,41.304 L61.4054,1.773 C61.4054,1.059 60.8214,0.475 60.1074,0.475 L60.1074,0.475 Z M1.3444,41.258 L60.0614,41.258 L60.0614,1.82 L1.3444,1.82 L1.3444,41.258 Z" id="Fill-3" fill="#FFFFFF"></path>
                    <path d="M91.84,1 L77.999,1 C76.343,1 75,2.343 75,4 L75,39.733 C75,41.389 76.343,42.733 77.999,42.733 L91.84,42.733 C93.497,42.733 94.84,41.389 94.84,39.733 L94.84,4 C94.84,2.343 93.497,1 91.84,1 L91.84,1 Z" id="Stroke-5" stroke="#FFFFFF" stroke-width="1.344" stroke-linejoin="round"></path>
                    <path d="M95.688,37 L76,37" id="Stroke-7" stroke="#FFFFFF" stroke-width="1.344" stroke-linejoin="round"></path>
                    <path d="M76,7 L95.689,7" id="Stroke-9" stroke="#FFFFFF" stroke-width="1.344" stroke-linejoin="round"></path>
                </g>
            </g>
        </g>
    </g>
</svg>