<?xml version="1.0" encoding="UTF-8"?>
<svg width="83px" height="46px" viewBox="0 0 83 46" version="1.1" xmlns="http://www.w3.org/2000/svg" xmlns:xlink="http://www.w3.org/1999/xlink">
    <title>Tools with skicky colors</title>
    <desc></desc>
    <defs></defs>
    <g id="Website" stroke="none" stroke-width="1" fill="none" fill-rule="evenodd" stroke-linejoin="round">
        <g id="Desktop-HD-Copy-20" transform="translate(-577.000000, -6666.000000)" stroke="#FFFFFF" stroke-width="1.344">
            <g id="Group-14" transform="translate(207.000000, 6657.000000)">
                <g id="Group" transform="translate(370.666667, 9.000000)">
                    <path d="M53.8494,42.4494 L45.6654,45.1304 C43.9394,45.6954 42.3444,43.9784 43.0354,42.2994 L46.1424,34.7424 L73.7014,7.1824 L81.4084,14.8904 L53.8494,42.4494 L53.8494,42.4494 Z" id="Stroke-1"></path>
                    <path d="M68.999,11.8852 L76.706,19.5922" id="Stroke-3"></path>
                    <path d="M48.3842,44.5928 L43.8462,40.3258" id="Stroke-5"></path>
                    <path d="M46.6134,34.2708 L54.3204,41.9778" id="Stroke-7"></path>
                    <path d="M72.8527,15.7389 L50.4667,38.1249" id="Stroke-9"></path>
                    <polygon id="Stroke-11" points="14.2827 39.2176 5.2917 41.0296 3.9147 39.5486 6.5757 31.5106 34.1347 3.9506 41.8417 11.6586"></polygon>
                    <polyline id="Stroke-13" points="34.9997 4.8159 39.1437 0.6719 45.1207 6.6499 40.9767 10.7929"></polyline>
                    <path d="M7.0466,31.039 L14.7536,38.746" id="Stroke-15"></path>
                    <path d="M4.1244,40.767 L0.4754,44.416" id="Stroke-17"></path>
                </g>
            </g>
        </g>
    </g>
</svg>