<?xml version="1.0" encoding="UTF-8"?>
<svg width="129px" height="233px" viewBox="0 0 129 233" version="1.1" xmlns="http://www.w3.org/2000/svg" xmlns:xlink="http://www.w3.org/1999/xlink">
    <!-- Generator: Sketch 41.2 (35397) - http://www.bohemiancoding.com/sketch -->
    <title>Group 22</title>
    <desc>Created with Sketch.</desc>
    <defs></defs>
    <g id="Website" stroke="none" stroke-width="1" fill="none" fill-rule="evenodd">
        <g id="Desktop-HD-Copy-20" transform="translate(-212.000000, -7781.000000)">
            <g id="Group-22" transform="translate(212.000000, 7781.000000)">
                <path d="M87.5058553,57.7799631 C87.5058553,79.7503224 69.7083553,97.5599263 47.7529277,97.5599263 C25.799135,97.5599263 8,79.7503224 8,57.7799631 C8,35.8096039 25.799135,18 47.7529277,18 C69.7083553,18 87.5058553,35.8096039 87.5058553,57.7799631 L87.5058553,57.7799631 Z" id="Fill-1" fill="#1267CC"></path>
                <path d="M127.505855,39.7799631 C127.505855,61.7503224 109.708355,79.5599263 87.7529277,79.5599263 C65.799135,79.5599263 48,61.7503224 48,39.7799631 C48,17.8096039 65.799135,0 87.7529277,0 C109.708355,0 127.505855,17.8096039 127.505855,39.7799631" id="Fill-3" fill="#1267CC"></path>
                <path d="M86.3087315,116.973157 L56.0260032,116.973157 C36.6817476,116.973157 21,101.280744 21,81.923333 L21,75.0481878 C21,55.6924126 36.6817476,40 56.0260032,40 L86.3087315,40 C105.652987,40 121.334735,55.6924126 121.334735,75.0481878 L121.334735,81.923333 C121.334735,101.280744 105.652987,116.973157 86.3087315,116.973157" id="Fill-5" fill="#67E5C1"></path>
                <polygon id="Fill-7" fill="#FFF466" points="67 63 67 93.4423968 85.1179695 93.4423968"></polygon>
                <path d="M26.8298875,126.419987 C26.8298875,130.518568 23.5107395,133.839973 19.4149437,133.839973 C15.320783,133.839973 12,130.518568 12,126.419987 C12,122.321405 15.320783,119 19.4149437,119 C23.5107395,119 26.8298875,122.321405 26.8298875,126.419987" id="Fill-9" fill="#67E5C1"></path>
                <path d="M88.0914051,114.557635 C88.0914051,124.255157 80.2349984,132.11527 70.5457026,132.11527 C60.8547717,132.11527 53,124.255157 53,114.557635 C53,104.860114 60.8547717,97 70.5457026,97 C80.2349984,97 88.0914051,104.860114 88.0914051,114.557635" id="Fill-11" fill="#67E5C1"></path>
                <path d="M128.829887,64.4199865 C128.829887,68.5185679 125.51074,71.8399731 121.414944,71.8399731 C117.320783,71.8399731 114,68.5185679 114,64.4199865 C114,60.3214052 117.320783,57 121.414944,57 C125.51074,57 128.829887,60.3214052 128.829887,64.4199865" id="Fill-13" fill="#67E5C1"></path>
                <path d="M57.0709341,72.0383495 C57.0709341,73.7154137 55.712209,75.076699 54.0346495,75.076699 C52.3587251,75.076699 51,73.7154137 51,72.0383495 C51,70.3612853 52.3587251,69 54.0346495,69 C55.712209,69 57.0709341,70.3612853 57.0709341,72.0383495" id="Fill-15" fill="#231F1F"></path>
                <path d="M91.0709341,72.0383495 C91.0709341,73.7154137 89.712209,75.076699 88.0346495,75.076699 C86.3587251,75.076699 85,73.7154137 85,72.0383495 C85,70.3612853 86.3587251,69 88.0346495,69 C89.712209,69 91.0709341,70.3612853 91.0709341,72.0383495" id="Fill-17" fill="#231F1F"></path>
                <polygon id="Fill-19" fill="#1267CC" points="20 158.159457 27.2988553 158.159457 27.2988553 107 20 107"></polygon>
                <polygon id="Fill-21" fill="#1267CC" points="113 95.7328313 120.926714 95.7328313 120.926714 41 113 41"></polygon>
                <polygon id="Fill-22" fill="#FFF466" points="71.0123633 165.287162 57 141 85.0247267 141"></polygon>
                <polygon id="Fill-23" fill="#FFF466" points="71.0123633 157 57 208.728841 71.0123633 233.016003 85.0247267 208.728841"></polygon>
                <path d="M61.2939727,203.622195 L74.4283151,226.387728 L87.5626576,203.622195 L75.0430932,157.403942 L87.0247267,136.63616 L61.8319035,136.63616 L73.815172,157.403942 L61.2939727,203.622195 Z M74.4283151,229.660049 L59.5379309,203.852894 L72.0574952,157.63464 L59,135 L89.8566302,135 L76.799135,157.63464 L89.3186994,203.852894 L74.4283151,229.660049 Z" id="Fill-24" fill="#FFFFFF"></path>
                <path d="M1.63504823,150.63616 L1.63504823,168.633922 C1.63504823,178.557234 9.70401125,186.631685 19.6205788,186.631685 C29.5371463,186.631685 37.6061093,178.557234 37.6061093,168.633922 L37.6061093,150.63616 L1.63504823,150.63616 Z M19.6205788,188.267845 C8.80146463,188.267845 0,179.460395 0,168.633922 L0,149 L39.2411576,149 L39.2411576,168.633922 C39.2411576,179.460395 30.4396929,188.267845 19.6205788,188.267845 L19.6205788,188.267845 Z" id="Fill-63" fill="#67E5C1"></path>
            </g>
        </g>
    </g>
</svg>