<?xml version="1.0" encoding="UTF-8"?>
<svg width="72px" height="58px" viewBox="0 0 72 58" version="1.1" xmlns="http://www.w3.org/2000/svg" xmlns:xlink="http://www.w3.org/1999/xlink">
    <title>Wide canvas</title>
    <desc></desc>
    <defs></defs>
    <g id="Website" stroke="none" stroke-width="1" fill="none" fill-rule="evenodd">
        <g id="Desktop-HD-Copy-20" transform="translate(-737.000000, -6661.000000)">
            <g id="Group-14" transform="translate(207.000000, 6657.000000)">
                <g id="Group-4" transform="translate(530.000000, 4.000000)">
                    <polyline id="Stroke-1" stroke="#FFFFFF" stroke-width="1.344" stroke-linejoin="round" points="30.5537 5.9438 35.8257 0.6718 41.0967 5.9438"></polyline>
                    <path d="M59.6553,10.6723 L11.9953,10.6723 C11.2643,10.6723 10.6723,11.2643 10.6723,11.9953 L10.6723,45.3223 C10.6723,46.0533 11.2643,46.6453 11.9953,46.6453 L59.6553,46.6453 C60.3863,46.6453 60.9783,46.0533 60.9783,45.3223 L60.9783,11.9953 C60.9783,11.2643 60.3863,10.6723 59.6553,10.6723 M59.6343,12.0173 L59.6553,45.3013 L12.0163,45.3223 L11.9953,12.0173 L59.6343,12.0173" id="Fill-3" fill="#FFFFFF"></path>
                    <path d="M35.8253,0.6722 L35.8253,20.6722" id="Stroke-5" stroke="#FFFFFF" stroke-width="1.344" stroke-linejoin="round"></path>
                    <polyline id="Stroke-7" stroke="#FFFFFF" stroke-width="1.344" stroke-linejoin="round" points="41.0969 51.3741 35.8249 56.6461 30.5539 51.3741"></polyline>
                    <path d="M35.8253,56.6456 L35.8253,36.6456" id="Stroke-9" stroke="#FFFFFF" stroke-width="1.344" stroke-linejoin="round"></path>
                    <polyline id="Stroke-11" stroke="#FFFFFF" stroke-width="1.344" stroke-linejoin="round" points="65.7067 23.3874 70.9787 28.6594 65.7067 33.9304"></polyline>
                    <path d="M70.9783,28.6589 L50.9783,28.6589" id="Stroke-13" stroke="#FFFFFF" stroke-width="1.344" stroke-linejoin="round"></path>
                    <polyline id="Stroke-15" stroke="#FFFFFF" stroke-width="1.344" stroke-linejoin="round" points="5.9438 33.9305 0.6718 28.6585 5.9438 23.3875"></polyline>
                    <path d="M0.6723,28.6589 L20.6723,28.6589" id="Stroke-17" stroke="#FFFFFF" stroke-width="1.344" stroke-linejoin="round"></path>
                </g>
            </g>
        </g>
    </g>
</svg>