<?xml version="1.0" encoding="UTF-8"?>
<svg width="329px" height="329px" viewBox="0 0 329 329" version="1.1" xmlns="http://www.w3.org/2000/svg" xmlns:xlink="http://www.w3.org/1999/xlink">
    <!-- Generator: Sketch 41.2 (35397) - http://www.bohemiancoding.com/sketch -->
    <title>Group 33</title>
    <desc>Created with Sketch.</desc>
    <defs></defs>
    <g id="Website" stroke="none" stroke-width="1" fill="none" fill-rule="evenodd">
        <g id="Desktop-HD-Copy-20" transform="translate(-764.000000, -3893.000000)">
            <g id="Group-33" transform="translate(766.000000, 3895.000000)">
                <g id="Group-9">
                    <path d="M162.8014,324.747233 C252.301871,324.747233 324.856338,252.128234 324.856338,162.548159 C324.856338,72.9680837 252.301871,0.349084678 162.8014,0.349084678 C73.3009288,0.349084678 0.746461565,72.9680837 0.746461565,162.548159 C0.746461565,252.128234 73.3009288,324.747233 162.8014,324.747233 Z" id="Oval-37-Copy-4" stroke="#FBFAF8" stroke-width="3.51500005" fill="#4893FF"></path>
                    <g id="Group-6-Copy" transform="translate(144.000000, 125.000000)">
                        <g id="Group-5">
                            <path d="M4.09847676,0 C1.83536322,0 0,1.8338453 0,4.09645264 L0,52.8893 C0,55.1505419 1.83536322,56.9857527 4.09847676,56.9857527 L23.0137875,56.9857527 C25.2782676,56.9857527 27.1136308,55.1505419 27.1136308,52.8893 L27.1136308,4.09645264 C27.1136308,1.8338453 25.2782676,0 23.0137875,0 L4.09847676,0 Z" id="Stroke-4-Copy" stroke="#FFFFFF" stroke-width="2.85" stroke-linejoin="round"></path>
                            <path d="M13.4526119,50.6219996 C12.7870707,50.6219996 12.247258,51.1613659 12.247258,51.8263567 L12.247258,51.8263567 C12.247258,52.4913475 12.7870707,53.0307138 13.4526119,53.0307138 C14.1181532,53.0307138 14.6579659,52.4913475 14.6579659,51.8263567 L14.6579659,51.8263567 C14.6579659,51.1613659 14.1181532,50.6219996 13.4526119,50.6219996" id="Fill-8-Copy" fill="#FFFFFF"></path>
                        </g>
                        <path d="M4.475,40 L22.525,40" id="Line-Copy-3" stroke="#FFFFFF" stroke-width="2" stroke-linecap="square"></path>
                        <path d="M4.475,43 L22.525,43" id="Line-Copy-4" stroke="#FFFFFF" stroke-width="2" stroke-linecap="square"></path>
                        <path d="M4.475,46 L22.525,46" id="Line-Copy-5" stroke="#FFFFFF" stroke-width="2" stroke-linecap="square"></path>
                    </g>
                    <path d="M75.5,112.5 L243.607109,112.5" id="Line" stroke="#FFFFFF" stroke-width="3" stroke-linecap="square"></path>
                    <rect id="Rectangle-7" fill="#4893FF" x="99.7807018" y="85.5263158" width="44.6637427" height="14.254386"></rect>
                    <path d="M140.617434,218.030969 C140.617434,218.030969 140.439593,235.408524 137.12561,238.294531 C134.008276,241.009667 132.452174,241.542784 130.880682,242.588513 C130.543812,242.814062 129.979511,243.912761 131.552713,244.064836 C131.552713,244.064836 159.379575,244.117806 159.442845,244.064836 L187.334686,244.064836 C188.911308,243.972566 188.343588,242.814062 188.005007,242.588513 C186.433515,241.542784 184.879124,241.009667 181.76179,238.294531 C178.447806,235.408524 178.269966,218.030969 178.269966,218.030969 L140.617434,218.030969 L140.617434,218.030969 Z" id="Stroke-1" stroke="#FFFFFF" stroke-width="2.87375009" stroke-linejoin="round"></path>
                    <path d="M250.699492,87.4320652 L68.1892755,87.4320652 C65.973113,87.4320652 64.1605109,89.2432951 64.1605109,91.45778 L64.1605109,214.04558 C64.1605109,216.260065 65.973113,218.071295 68.1892755,218.071295 L250.699492,218.071295 C252.915655,218.071295 254.728257,216.260065 254.728257,214.04558 L254.728257,91.45778 C254.728257,89.2432951 252.915655,87.4320652 250.699492,87.4320652 M250.699492,89.1834904 C251.954634,89.1834904 252.975505,90.2035887 252.975505,91.45778 L252.975505,214.04558 C252.975505,215.299771 251.954634,216.319869 250.699492,216.319869 L68.1892755,216.319869 C66.9341341,216.319869 65.9132629,215.299771 65.9132629,214.04558 L65.9132629,91.45778 C65.9132629,90.2035887 66.9341341,89.1834904 68.1892755,89.1834904 L250.699492,89.1834904" id="Fill-3" stroke="#FFFFFF" stroke-width="0.95" fill="#FFFFFF"></path>
                    <polygon id="Stroke-6" stroke="#FFFFFF" stroke-width="2.87375009" stroke-linejoin="round" points="74.3723005 194.972133 244.517493 194.972133 244.517493 98.3327645 74.3723005 98.3327645"></polygon>
                </g>
                <path d="M216.5,113.5 L216.5,192.5" id="Line" stroke="#FFFFFF" stroke-width="3" stroke-linecap="square"></path>
            </g>
        </g>
    </g>
</svg>