<?xml version="1.0" encoding="UTF-8"?>
<svg width="57px" height="59px" viewBox="0 0 57 59" version="1.1" xmlns="http://www.w3.org/2000/svg" xmlns:xlink="http://www.w3.org/1999/xlink">
    <title>Interactions</title>
    <desc></desc>
    <defs></defs>
    <g id="Website" stroke="none" stroke-width="1" fill="none" fill-rule="evenodd">
        <g id="Desktop-HD-Copy-20" transform="translate(-1201.000000, -6663.000000)">
            <g id="Group-14" transform="translate(207.000000, 6657.000000)">
                <g id="Group-8-Copy" transform="translate(994.000000, 6.000000)">
                    <polygon id="Fill-1" fill="#FFFFFF" points="27.3547 42.4668 20.0477 42.4668 20.0477 41.0668 25.9547 41.0668 25.9547 21.5388 33.6647 21.5388 33.6647 22.9388 27.3547 22.9388"></polygon>
                    <polygon id="Fill-2" fill="#FFFFFF" points="30.9516 22.2387 30.9516 19.1067 33.6646 20.6727 36.3766 22.2387 33.6646 23.8047 30.9516 25.3707"></polygon>
                    <path d="M17.5126,16.4146 L3.6716,16.4146 C2.0156,16.4146 0.6726,17.7576 0.6726,19.4146 L0.6726,55.1476 C0.6726,56.8046 2.0156,58.1476 3.6716,58.1476 L17.5126,58.1476 C19.1696,58.1476 20.5126,56.8046 20.5126,55.1476 L20.5126,19.4146 C20.5126,17.7576 19.1696,16.4146 17.5126,16.4146 L17.5126,16.4146 Z" id="Stroke-3" stroke="#FFFFFF" stroke-width="1.344" stroke-linejoin="round"></path>
                    <path d="M53.2173,0.6723 L39.3763,0.6723 C37.7203,0.6723 36.3773,2.0153 36.3773,3.6723 L36.3773,39.4053 C36.3773,41.0623 37.7203,42.4053 39.3763,42.4053 L53.2173,42.4053 C54.8743,42.4053 56.2173,41.0623 56.2173,39.4053 L56.2173,3.6723 C56.2173,2.0153 54.8743,0.6723 53.2173,0.6723 L53.2173,0.6723 Z" id="Stroke-5" stroke="#FFFFFF" stroke-width="1.344" stroke-linejoin="round"></path>
                    <path d="M10.5923,54.0328 C10.1053,54.0328 9.7103,54.4278 9.7103,54.9148 L9.7103,54.9148 C9.7103,55.4018 10.1053,55.7968 10.5923,55.7968 C11.0793,55.7968 11.4743,55.4018 11.4743,54.9148 L11.4743,54.9148 C11.4743,54.4278 11.0793,54.0328 10.5923,54.0328" id="Fill-7" fill="#FFFFFF"></path>
                    <path d="M46.297,37.949 C45.81,37.949 45.415,38.344 45.415,38.831 L45.415,38.831 C45.415,39.318 45.81,39.713 46.297,39.713 C46.784,39.713 47.179,39.318 47.179,38.831 L47.179,38.831 C47.179,38.344 46.784,37.949 46.297,37.949" id="Fill-9" fill="#FFFFFF"></path>
                </g>
            </g>
        </g>
    </g>
</svg>