<?xml version="1.0" encoding="UTF-8"?>
<svg width="64px" height="49px" viewBox="0 0 64 49" version="1.1" xmlns="http://www.w3.org/2000/svg" xmlns:xlink="http://www.w3.org/1999/xlink">
    <!-- Generator: Sketch 41.2 (35397) - http://www.bohemiancoding.com/sketch -->
    <title>Group 15</title>
    <desc>Created with Sketch.</desc>
    <defs></defs>
    <g id="Website" stroke="none" stroke-width="1" fill="none" fill-rule="evenodd">
        <g id="Desktop-HD-Copy-20" transform="translate(-207.000000, -6657.000000)">
            <g id="Group-14" transform="translate(207.000000, 6657.000000)">
                <g id="Group-15">
                    <path d="M42.1394,27.6513 L35.8784,29.7023 C34.5584,30.1343 33.3384,28.8213 33.8664,27.5363 L36.2434,21.7553 L57.3264,0.6723 L63.2224,6.5683 L42.1394,27.6513 L42.1394,27.6513 Z" id="Stroke-1" stroke="#FFFFFF" stroke-width="1.344" stroke-linejoin="round"></path>
                    <path d="M51.9404,6.058 L57.8364,11.954" id="Stroke-3" stroke="#FFFFFF" stroke-width="1.344" stroke-linejoin="round"></path>
                    <path d="M50.9783,25.4476 L50.9783,46.8246 C50.9783,47.5546 50.3863,48.1476 49.6553,48.1476 L1.9953,48.1476 C1.2643,48.1476 0.6723,47.5546 0.6723,46.8246 L0.6723,13.4966 C0.6723,12.7666 1.2643,12.1736 1.9953,12.1736 L38.1183,12.1736" id="Stroke-5" stroke="#FFFFFF" stroke-width="1.344" stroke-linejoin="round"></path>
                    <path d="M5.101,29.2791 L5.101,29.2791 C4.614,29.2791 4.219,29.6741 4.219,30.1611 C4.219,30.6481 4.614,31.0431 5.101,31.0431 L5.101,31.0431 C5.588,31.0431 5.983,30.6481 5.983,30.1611 C5.983,29.6741 5.588,29.2791 5.101,29.2791" id="Fill-7"></path>
                </g>
            </g>
        </g>
    </g>
</svg>