<?xml version="1.0" encoding="UTF-8"?>
<svg width="196px" height="248px" viewBox="0 0 196 248" version="1.1" xmlns="http://www.w3.org/2000/svg" xmlns:xlink="http://www.w3.org/1999/xlink">
    <!-- Generator: Sketch 41.2 (35397) - http://www.bohemiancoding.com/sketch -->
    <title>Group 37</title>
    <desc>Created with Sketch.</desc>
    <defs></defs>
    <g id="Website" stroke="none" stroke-width="1" fill="none" fill-rule="evenodd">
        <g id="Desktop-HD-Copy-20" transform="translate(-1033.000000, -7758.000000)">
            <g id="Group-37" transform="translate(1033.000000, 7758.000000)">
                <path d="M121.50422,75.7799631 C121.50422,97.7503224 103.70672,115.559926 81.7512926,115.559926 C59.7975,115.559926 42,97.7503224 42,75.7799631 C42,53.8096039 59.7975,36 81.7512926,36 C103.70672,36 121.50422,53.8096039 121.50422,75.7799631" id="Fill-29" fill="#1267CC"></path>
                <path d="M142.50422,47.7799631 C142.50422,69.7503224 124.70672,87.5599263 102.751293,87.5599263 C80.7975,87.5599263 63,69.7503224 63,47.7799631 C63,25.8096039 80.7975,8 102.751293,8 C124.70672,8 142.50422,25.8096039 142.50422,47.7799631" id="Fill-30" fill="#1267CC"></path>
                <path d="M105.570452,1.63616021 C84.1022685,1.63616021 66.6350482,19.1152597 66.6350482,40.5964071 C66.6350482,62.0791906 84.1022685,79.5582901 105.570452,79.5582901 C127.038635,79.5582901 144.50422,62.0791906 144.50422,40.5964071 C144.50422,19.1152597 127.038635,1.63616021 105.570452,1.63616021 M105.570452,81.1944503 C83.1997219,81.1944503 65,62.9823511 65,40.5964071 C65,18.2120993 83.1997219,0 105.570452,0 C127.941182,0 146.139268,18.2120993 146.139268,40.5964071 C146.139268,62.9823511 127.941182,81.1944503 105.570452,81.1944503" id="Fill-31" fill="#FFF466"></path>
                <path d="M85.5491736,154.978382 C64.203619,154.978382 40,118.639264 40,101.065267 L40,94.8233161 C40,77.2476831 54.238,63 71.8016881,63 L99.2966592,63 C116.860347,63 131.098347,77.2476831 131.098347,94.8233161 L131.098347,101.065267 C131.098347,118.639264 106.894728,154.978382 85.5491736,154.978382" id="Fill-32" fill="#67E5C1"></path>
                <polygon id="Fill-33" fill="#FFF466" points="83 104 83 124.587804 95.2530514 124.587804"></polygon>
                <path d="M47.8298875,95.4199865 C47.8298875,99.5185679 44.5107395,102.839973 40.4149437,102.839973 C36.320783,102.839973 33,99.5185679 33,95.4199865 C33,91.3214052 36.320783,88 40.4149437,88 C44.5107395,88 47.8298875,91.3214052 47.8298875,95.4199865" id="Fill-34" fill="#67E5C1"></path>
                <path d="M103.091405,154.557635 C103.091405,164.255157 95.2349984,172.11527 85.5457026,172.11527 C75.8547717,172.11527 68,164.255157 68,154.557635 C68,144.860114 75.8547717,137 85.5457026,137 C95.2349984,137 103.091405,144.860114 103.091405,154.557635" id="Fill-35" fill="#67E5C1"></path>
                <path d="M138.829887,97.4199865 C138.829887,101.518568 135.51074,104.839973 131.414944,104.839973 C127.320783,104.839973 124,101.518568 124,97.4199865 C124,93.3214052 127.320783,90 131.414944,90 C135.51074,90 138.829887,93.3214052 138.829887,97.4199865" id="Fill-36" fill="#67E5C1"></path>
                <path d="M88.8598328,103.055746 L81.8127749,103.055746 L81.8127749,102.237666 C81.8127749,91.9805773 73.4740289,83.6361602 63.2239116,83.6361602 C52.9737942,83.6361602 44.6350482,91.9805773 44.6350482,102.237666 L43,102.237666 C43,91.079053 52.0728826,82 63.2239116,82 C74.1018875,82 83.001455,90.6372897 83.4331077,101.419586 L87.241135,101.419586 C87.6711527,90.6372897 96.5707203,82 107.448696,82 C118.599725,82 127.672608,91.079053 127.672608,102.237666 L126.037559,102.237666 C126.037559,91.9805773 117.698814,83.6361602 107.448696,83.6361602 C97.1985788,83.6361602 88.8598328,91.9805773 88.8598328,102.237666 L88.8598328,103.055746 Z" id="Fill-37" fill="#1267CC"></path>
                <path d="M113.564875,58.2975913 C113.564875,70.6129692 103.58781,80.5951826 91.2824373,80.5951826 C78.9754293,80.5951826 69,70.6129692 69,58.2975913 C69,45.9822134 78.9754293,36 91.2824373,36 C103.58781,36 113.564875,45.9822134 113.564875,58.2975913" id="Fill-41" fill="#1267CC"></path>
                <polygon id="Fill-42" fill="#1267CC" points="120.155979 87.7658286 119 86.6090633 123.607566 82 124.763545 83.1567653"></polygon>
                <polygon id="Fill-43" fill="#1267CC" points="62 83.2946144 63.6350482 83.2946144 63.6350482 78 62 78"></polygon>
                <path d="M82,59.4023269 L82,57.7661667 C111.076063,57.7661667 134.730305,34.0942008 134.730305,5 L136.365354,5 C136.365354,34.9973613 111.976974,59.4023269 82,59.4023269" id="Fill-44" fill="#FFF466"></path>
                <path d="M66.0709341,95.0383495 C66.0709341,96.7154137 64.712209,98.076699 63.0346495,98.076699 C61.3587251,98.076699 60,96.7154137 60,95.0383495 C60,93.3612853 61.3587251,92 63.0346495,92 C64.712209,92 66.0709341,93.3612853 66.0709341,95.0383495" id="Fill-54" fill="#231F1F"></path>
                <path d="M112.070934,95.0383495 C112.070934,96.7154137 110.712209,98.076699 109.03465,98.076699 C107.358725,98.076699 106,96.7154137 106,95.0383495 C106,93.3612853 107.358725,92 109.03465,92 C110.712209,92 112.070934,93.3612853 112.070934,95.0383495" id="Fill-55" fill="#231F1F"></path>
                <path d="M26.8507621,195.313531 L6.90153859,215.274685 C3.50554341,218.67299 1.63504823,223.1937 1.63504823,228.002375 C1.63504823,232.807778 3.50554341,237.328489 6.90153859,240.726793 C10.2991688,244.126734 14.8168071,245.998501 19.6205788,245.998501 C24.4243505,245.998501 28.9403537,244.126734 32.3379839,240.726793 L52.2855723,220.765639 L26.8507621,195.313531 Z M19.6205788,247.624845 C14.5960756,247.624845 9.57157235,245.712173 5.74555949,241.883559 C2.04054019,238.17602 0,233.246269 0,228.002375 C0,222.75521 2.04054019,217.825459 5.74555949,214.11792 L26.8507621,193 L54.5975305,220.765639 L33.493963,241.883559 C29.6695852,245.712173 24.6434469,247.624845 19.6205788,247.624845 L19.6205788,247.624845 Z" id="Fill-64" fill="#67E5C1"></path>
                <path d="M133.254213,213.040324 L127.861823,226.165601 C127.41709,227.248739 127.626377,228.405504 128.42101,229.262852 C129.217278,230.118564 130.358542,230.417981 131.46874,230.049845 L145.652783,225.40315 L193.32425,177.697627 L180.946934,165.313531 L133.254213,213.040324 Z M130.540032,231.838168 C129.300666,231.838168 128.107081,231.327686 127.224155,230.377077 C125.999504,229.058332 125.665954,227.206199 126.349404,225.54386 L131.982145,211.99809 L180.946934,163 L195.636208,177.697627 L146.532439,226.834791 L146.346044,226.896965 L131.97724,231.60747 C131.501441,231.761269 131.017467,231.838168 130.540032,231.838168 L130.540032,231.838168 Z" id="Fill-65" fill="#FFF466"></path>
                <polygon id="Fill-66" fill="#FFF466" points="181.531659 189.697627 168 176.156765 169.155979 175 182.687638 188.540862"></polygon>
                <path d="M28.4220939,221.684634 L27.6503512,220.243177 C34.1022515,216.790879 38.2520039,212.463235 39.985155,207.381321 C43.5822611,196.834633 35.3579685,186.392658 25.8354476,174.299798 C17.4280296,163.625489 7.89896853,151.524448 3.9421518,136.46523 C-1.60883694,115.350582 4.75313573,90.6314736 22.8514846,63 L24.2183849,63.8966158 C6.38654891,91.125594 0.094883316,115.401303 5.52324344,136.049645 C9.39503766,150.779995 18.8112804,162.737054 27.1205955,173.287015 C36.9374251,185.75292 45.4167852,196.52049 41.5335457,207.908165 C39.6614155,213.397483 35.2500553,218.032724 28.4220939,221.684634" id="Fill-67" fill="#67E5C1"></path>
            </g>
        </g>
    </g>
</svg>