<?xml version="1.0" encoding="UTF-8"?>
<svg width="329px" height="329px" viewBox="0 0 329 329" version="1.1" xmlns="http://www.w3.org/2000/svg" xmlns:xlink="http://www.w3.org/1999/xlink">
    <!-- Generator: Sketch 41.2 (35397) - http://www.bohemiancoding.com/sketch -->
    <title>Group 8</title>
    <desc>Created with Sketch.</desc>
    <defs></defs>
    <g id="Website" stroke="none" stroke-width="1" fill="none" fill-rule="evenodd">
        <g id="Desktop-HD-Copy-20" transform="translate(-763.000000, -3446.000000)">
            <g id="Group-8" transform="translate(764.000000, 3448.000000)">
                <path d="M163.123547,324.965453 C252.741777,324.965453 325.391706,252.261994 325.391706,162.577732 C325.391706,72.8934709 252.741777,0.190012079 163.123547,0.190012079 C73.5053173,0.190012079 0.855387785,72.8934709 0.855387785,162.577732 C0.855387785,252.261994 73.5053173,324.965453 163.123547,324.965453 Z" id="Oval-37-Copy-3" stroke="#FFFFFF" stroke-width="3.51500005" fill="#4893FF"></path>
                <g id="Group-6-Copy" transform="translate(155.871720, 95.979532)">
                    <g id="Group-5">
                        <path d="M4.77087843,0 C2.1364754,0 0,2.13438296 0,4.76779514 L0,61.557003 C0,64.188826 2.1364754,66.3247982 4.77087843,66.3247982 L26.7894607,66.3247982 C29.4254546,66.3247982 31.56193,64.188826 31.56193,61.557003 L31.56193,4.76779514 C31.56193,2.13438296 29.4254546,0 26.7894607,0 L4.77087843,0 Z" id="Stroke-4-Copy" stroke="#FFFFFF" stroke-width="2.85" stroke-linejoin="round"></path>
                        <path d="M15.6596657,58.9181287 C14.8849349,58.9181287 14.2565598,59.5458883 14.2565598,60.3198604 L14.2565598,60.3198604 C14.2565598,61.0938325 14.8849349,61.7215922 15.6596657,61.7215922 C16.4343966,61.7215922 17.0627717,61.0938325 17.0627717,60.3198604 L17.0627717,60.3198604 C17.0627717,59.5458883 16.4343966,58.9181287 15.6596657,58.9181287" id="Fill-8-Copy" fill="#FFFFFF"></path>
                    </g>
                </g>
                <g id="Group-7" transform="translate(191.988338, 63.669591)" stroke-width="2.85" stroke="#FFFFFF" stroke-linejoin="round">
                    <polygon id="Stroke-1" points="21.5993447 59.8155424 7.81388227 62.5966862 5.70262391 60.3228179 9.78193513 47.9894256 52.0380166 5.70175439 63.8558808 17.5278711"></polygon>
                    <polyline id="Stroke-2" points="53.2244898 6.35800499 59.5778136 0 68.7429662 9.17145063 62.3891878 15.5294556"></polyline>
                    <path d="M11.4052478,46.5643275 L23.2226574,58.3904442" id="Stroke-3"></path>
                    <path d="M5.59501652,61.7690058 L0,67.3681448" id="Stroke-4"></path>
                    <polyline id="Stroke-5" points="64.5603504 17.1052632 68.5973819 21.1452692 51.3236152 38.4313085"></polyline>
                </g>
                <path d="M212.321651,199.561404 L150.169096,199.561404" id="Stroke-6" stroke="#FFFFFF" stroke-width="2.85" stroke-linejoin="round"></path>
                <path d="M211.947522,124.488304 L211.947522,177.611654" id="Stroke-7" stroke="#FFFFFF" stroke-width="2.85" stroke-linejoin="round"></path>
                <polyline id="Stroke-8" stroke="#FFFFFF" stroke-width="2.85" stroke-linejoin="round" points="128.309038 101.941979 128.309038 74.122807 212.368399 74.122807 212.368399 100.645356"></polyline>
                <path d="M128.309038,179.130117 L128.309038,138.74269" id="Stroke-9" stroke="#FFFFFF" stroke-width="2.85" stroke-linejoin="round"></path>
                <polyline id="Stroke-10" stroke="#FFFFFF" stroke-width="2.85" stroke-linejoin="round" points="120.705539 100.412733 120.705539 67.4707602 204.7649 67.4707602 204.7649 74.3756219"></polyline>
                <polyline id="Stroke-12" stroke="#FFFFFF" stroke-width="2.85" stroke-linejoin="round" points="129.872965 186.820237 120.705539 186.820237 120.705539 171.021902 120.705539 137.792398"></polyline>
                <path d="M213.120831,199.627626 C225.32795,199.627626 235.22373,189.812413 235.22373,177.704678 L200.201826,177.704678 L172.514835,177.704678 C172.514835,189.812413 162.619055,199.627626 150.411936,199.627626 C138.204817,199.627626 128.309038,189.812413 128.309038,177.704678" id="Stroke-13" stroke="#FFFFFF" stroke-width="2.85" stroke-linejoin="round"></path>
                <polygon id="Stroke-15" stroke="#FFFFFF" stroke-width="2.85" stroke-linejoin="round" points="252.417018 159.528782 253.213513 168.149737 225.152962 170.955448 221.451895 133.893397 258.487113 130.190058 261.333038 158.691209"></polygon>
                <path d="M252.816327,168.157358 L260.935397,158.69883" id="Stroke-17" stroke="#FFFFFF" stroke-width="2.85" stroke-linejoin="round"></path>
                <polygon id="Stroke-19" stroke="#FFFFFF" stroke-width="2.85" stroke-linejoin="round" points="129.825257 131.465177 128.755989 140.056559 100.746356 136.774509 105.074799 99.7807018 142.041369 104.111879 138.713091 132.56071"></polygon>
                <path d="M129.259475,140.536785 L139.216577,133.040936" id="Stroke-21" stroke="#FFFFFF" stroke-width="2.85" stroke-linejoin="round"></path>
                <polygon id="Stroke-23" stroke="#FFFFFF" stroke-width="2.85" stroke-linejoin="round" points="164.396615 239.901346 169.710676 246.732959 147.586561 264.232373 124.507289 235.011027 153.707574 211.915205 171.45551 234.386828"></polygon>
                <path d="M169.177843,247.068353 L170.922222,234.722222" id="Stroke-25" stroke="#FFFFFF" stroke-width="2.85" stroke-linejoin="round"></path>
                <polygon id="Stroke-27" stroke="#FFFFFF" stroke-width="2.85" stroke-linejoin="round" points="90.6924744 173.502916 91.1275464 182.149348 62.9737979 183.776724 60.8279883 146.591835 97.9854991 144.444444 99.6357721 173.039771"></polygon>
                <path d="M90.2915452,182.062793 L98.7993163,172.953216" id="Stroke-29" stroke="#FFFFFF" stroke-width="2.85" stroke-linejoin="round"></path>
                <polyline id="Stroke-31" stroke="#FFFFFF" stroke-width="2.85" stroke-linejoin="round" points="227.715975 133.81444 227.154519 128.191643 264.189282 124.488304 267.890349 161.550355 259.170725 162.422505"></polyline>
            </g>
        </g>
    </g>
</svg>