<?xml version="1.0" encoding="UTF-8"?>
<svg width="43px" height="51px" viewBox="0 0 43 51" version="1.1" xmlns="http://www.w3.org/2000/svg" xmlns:xlink="http://www.w3.org/1999/xlink">
    <!-- Generator: Sketch 41.2 (35397) - http://www.bohemiancoding.com/sketch -->
    <title>Group 20</title>
    <desc>Created with Sketch.</desc>
    <defs></defs>
    <g id="Website" stroke="none" stroke-width="1" fill="none" fill-rule="evenodd">
        <g id="Desktop-HD-Copy-20" transform="translate(-915.000000, -6658.000000)">
            <g id="Group-14" transform="translate(207.000000, 6657.000000)">
                <g id="Group-20" transform="translate(708.333333, 1.000000)">
                    <path d="M0.6723,42.0972 C0.6723,46.4322 4.1873,49.9472 8.5223,49.9472 C12.8583,49.9472 16.3723,46.4322 16.3723,42.0972 C16.3723,37.7622 12.8583,34.2472 8.5223,34.2472 C4.1873,34.2472 0.6723,37.7622 0.6723,42.0972 L0.6723,42.0972 Z" id="Stroke-1" stroke="#FFFFFF" stroke-width="1.344" stroke-linejoin="round"></path>
                    <path d="M5.9819,42.0972 C5.9819,43.5002 7.1189,44.6372 8.5219,44.6372 C9.9249,44.6372 11.0629,43.5002 11.0629,42.0972 C11.0629,40.6942 9.9249,39.5572 8.5219,39.5572 C7.1189,39.5572 5.9819,40.6942 5.9819,42.0972 L5.9819,42.0972 Z" id="Stroke-3" stroke="#FFFFFF" stroke-width="1.344" stroke-linejoin="round"></path>
                    <path d="M25.39,42.0972 C25.39,46.4322 28.905,49.9472 33.24,49.9472 C37.576,49.9472 41.09,46.4322 41.09,42.0972 C41.09,37.7622 37.576,34.2472 33.24,34.2472 C28.905,34.2472 25.39,37.7622 25.39,42.0972 L25.39,42.0972 Z" id="Stroke-5" stroke="#FFFFFF" stroke-width="1.344" stroke-linejoin="round"></path>
                    <path d="M30.6997,42.0972 C30.6997,43.5002 31.8367,44.6372 33.2397,44.6372 C34.6427,44.6372 35.7807,43.5002 35.7807,42.0972 C35.7807,40.6942 34.6427,39.5572 33.2397,39.5572 C31.8367,39.5572 30.6997,40.6942 30.6997,42.0972 L30.6997,42.0972 Z" id="Stroke-7" stroke="#FFFFFF" stroke-width="1.344" stroke-linejoin="round"></path>
                    <path d="M25.2183,29.6505 L30.5163,34.9485" id="Stroke-9" stroke="#FFFFFF" stroke-width="1.344" stroke-linejoin="round"></path>
                    <path d="M16.3708,29.3336 L3.1438,15.8836 C0.8498,13.5896 0.8498,9.8706 3.1438,7.5756 L20.9548,25.3866" id="Stroke-11" stroke="#FFFFFF" stroke-width="1.344" stroke-linejoin="round"></path>
                    <path d="M26.1689,39.2967 L20.9539,33.9947" id="Stroke-13" stroke="#FFFFFF" stroke-width="1.344" stroke-linejoin="round"></path>
                    <path d="M15.7406,39.2967 L38.7656,15.8837 C41.0596,13.5897 41.0596,9.8707 38.7656,7.5757 L11.3926,34.9487" id="Stroke-15" stroke="#FFFFFF" stroke-width="1.344" stroke-linejoin="round"></path>
                    <path d="M21.2658,29.721 C21.2658,30.101 20.9578,30.408 20.5778,30.408 C20.1988,30.408 19.8908,30.101 19.8908,29.721 C19.8908,29.341 20.1988,29.033 20.5778,29.033 C20.9578,29.033 21.2658,29.341 21.2658,29.721" id="Fill-17" fill="#FFFFFF"></path>
                    <path d="M20.9931,0 L20.9931,24.74" id="Stroke-19" stroke="#FFFFFF" stroke-width="1.345" stroke-linejoin="round" stroke-dasharray="4"></path>
                </g>
            </g>
        </g>
    </g>
</svg>