<?xml version="1.0" encoding="UTF-8"?>
<svg width="18px" height="21px" viewBox="0 0 18 21" version="1.1" xmlns="http://www.w3.org/2000/svg" xmlns:xlink="http://www.w3.org/1999/xlink">
    <!-- Generator: Sketch 41.2 (35397) - http://www.bohemiancoding.com/sketch -->
    <title>Fill 1</title>
    <desc>Created with Sketch.</desc>
    <defs></defs>
    <g id="Website" stroke="none" stroke-width="1" fill="none" fill-rule="evenodd">
        <g id="Desktop-HD-Copy-20" transform="translate(-1297.000000, -51.000000)" fill="#FFFFFF">
            <g id="Group-11-Copy-2" transform="translate(1119.000000, 37.000000)">
                <path d="M189.986992,17.2849195 C190.687119,16.4062919 191.168377,15.2097688 191.034028,14 C190.017267,14.0441521 188.745686,14.7013883 188.015283,15.5592014 C187.366247,16.3186183 186.789115,17.5574013 186.938602,18.7255409 C188.079619,18.8100607 189.254066,18.1490401 189.986992,17.2849195 M192.557908,24.9005337 C192.531417,22.3088028 194.67658,21.0479437 194.775607,20.9918074 C193.561423,19.2231987 191.676757,18.9803619 191.017629,18.9595473 C189.437613,18.7949229 187.903641,19.9050339 187.099441,19.9050339 C186.27695,19.9050339 185.039429,18.9765774 183.701619,19.0043302 C181.982208,19.0314522 180.37507,20.0292907 179.490766,21.5746157 C177.671697,24.7251866 179.029691,29.3548543 180.773701,31.9043252 C181.64539,33.1519387 182.664674,34.5439927 183.998699,34.4966868 C185.306864,34.4430735 185.793169,33.6615805 187.367508,33.6615805 C188.929863,33.6615805 189.386523,34.4966868 190.748932,34.4626266 C192.150447,34.4430735 193.034751,33.2124902 193.876165,31.9516311 C194.884095,30.5242553 195.287772,29.1126482 195.305433,29.0382203 C195.270742,29.0287591 192.583769,28.0050601 192.557908,24.9005337" id="Fill-1"></path>
            </g>
        </g>
    </g>
</svg>