<?xml version="1.0" encoding="UTF-8"?>
<svg width="85px" height="40px" viewBox="0 0 85 40" version="1.1" xmlns="http://www.w3.org/2000/svg" xmlns:xlink="http://www.w3.org/1999/xlink">
    <!-- Generator: Sketch 41.2 (35397) - http://www.bohemiancoding.com/sketch -->
    <title>logo</title>
    <desc>Created with Sketch.</desc>
    <defs>
        <polygon id="path-1" points="0.441552632 39.2690058 21.9424269 39.2690058 21.9424269 0.252017544 0.441552632 0.252017544 0.441552632 39.2690058"></polygon>
        <polygon id="path-3" points="0 39.5141637 84.5740058 39.5141637 84.5740058 0.497175439 0 0.497175439"></polygon>
    </defs>
    <g id="Website" stroke="none" stroke-width="1" fill="none" fill-rule="evenodd">
        <g id="Desktop-HD-Copy-20" transform="translate(-100.000000, -46.000000)">
            <g id="logo" transform="translate(100.000000, 46.000000)">
                <g id="Group-3" transform="translate(62.631579, 0.245158)">
                    <mask id="mask-2" fill="white">
                        <use xlink:href="#path-1"></use>
                    </mask>
                    <g id="Clip-2"></g>
                    <path d="M11.1918158,36.2037865 C6.95424269,36.2037865 3.50702047,32.7560673 3.50702047,28.5184942 C3.50702047,24.2809211 6.95424269,20.8332018 11.1918158,20.8332018 C15.4293889,20.8332018 18.8766111,24.2809211 18.8766111,28.5184942 C18.8766111,32.7560673 15.4293889,36.2037865 11.1918158,36.2037865 M3.96631871,10.5427339 C3.96631871,6.55866959 7.20775146,3.31723684 11.1918158,3.31723684 C15.1758801,3.31723684 18.4173129,6.55866959 18.4173129,10.5427339 C18.4173129,14.5267982 15.1758801,17.768231 11.1918158,17.768231 C7.20775146,17.768231 3.96631871,14.5267982 3.96631871,10.5427339 M16.6487164,19.2614474 C19.549652,17.4396637 21.4827807,14.2136404 21.4827807,10.5427339 C21.4827807,4.86811404 16.8664357,0.251769006 11.1918158,0.251769006 C5.51719591,0.251769006 0.900850877,4.86811404 0.900850877,10.5427339 C0.900850877,14.2136404 2.83447661,17.4396637 5.7349152,19.2614474 C2.56953509,21.1344298 0.441552632,24.581652 0.441552632,28.5184942 C0.441552632,34.4461257 5.26418421,39.2692544 11.1918158,39.2692544 C17.1194474,39.2692544 21.942576,34.4461257 21.942576,28.5184942 C21.942576,24.581652 19.8140965,21.1344298 16.6487164,19.2614474" id="Fill-1" fill="#FFFFFF" mask="url(#mask-2)"></path>
                </g>
                <path d="M46.1695146,17.7972602 L41.0212982,17.7972602 L41.0212982,4.10579825 L46.1695146,4.10579825 C49.853345,4.10579825 52.932731,7.26769883 52.932731,10.9515292 C52.932731,14.6353596 49.853345,17.7972602 46.1695146,17.7972602 M46.2520292,1.04430702 L37.7947778,1.04430702 L37.7947778,20.8587515 L46.2520292,20.8587515 C51.7148947,20.8587515 56.1592515,16.4143947 56.1592515,10.9515292 C56.1592515,5.48866374 51.7148947,1.04430702 46.2520292,1.04430702" id="Fill-4" fill="#FFFFFF"></path>
                <path d="M14.0430439,12.6602281 C14.0430439,15.6426842 11.6168158,18.2334444 8.63485673,18.2334444 C5.65240058,18.2334444 3.22666959,15.6426842 3.22666959,12.6602281 L3.22666959,1.09376608 L0.000149122807,1.09376608 L0.000149122807,12.6602281 C0.000149122807,17.4212222 3.8733655,21.2949357 8.63485673,21.2949357 C13.3958509,21.2949357 17.2695643,17.4212222 17.2695643,12.6602281 L17.2695643,1.09376608 L14.0430439,1.09376608 L14.0430439,12.6602281 Z" id="Fill-6" fill="#FFFFFF"></path>
                <mask id="mask-4" fill="white">
                    <use xlink:href="#path-3"></use>
                </mask>
                <g id="Clip-9"></g>
                <polygon id="Fill-8" fill="#FFFFFF" mask="url(#mask-4)" points="25.8926901 20.8246023 29.1192105 20.8246023 29.1192105 1.01164912 25.8926901 1.01164912"></polygon>
            </g>
        </g>
    </g>
</svg>