<?xml version="1.0" encoding="UTF-8"?>
<svg width="239px" height="111px" viewBox="0 0 239 111" version="1.1" xmlns="http://www.w3.org/2000/svg" xmlns:xlink="http://www.w3.org/1999/xlink">
    <!-- Generator: Sketch 41.2 (35397) - http://www.bohemiancoding.com/sketch -->
    <title>Page 1 Copy 6</title>
    <desc>Created with Sketch.</desc>
    <defs>
        <polygon id="path-1" points="0.246736842 110.920119 60.9550877 110.920119 60.9550877 0.711854433 0.246736842 0.711854433 0.246736842 110.920119"></polygon>
        <polygon id="path-3" points="0 111.612597 238.797193 111.612597 238.797193 1.40433295 0 1.40433295"></polygon>
    </defs>
    <g id="Website" stroke="none" stroke-width="1" fill="none" fill-rule="evenodd">
        <g id="Desktop-HD-Copy-20" transform="translate(-729.000000, -6296.000000)">
            <g id="Group-18" transform="translate(471.000000, 6285.664507)">
                <g id="Page-1-Copy-6" transform="translate(258.000000, 9.000000)">
                    <g id="Group-3" transform="translate(177.842105, 0.692479)">
                        <mask id="mask-2" fill="white">
                            <use xlink:href="#path-1"></use>
                        </mask>
                        <g id="Clip-2"></g>
                        <path d="M30.6004211,102.262031 C18.6355088,102.262031 8.90217544,92.5235256 8.90217544,80.5539812 C8.90217544,68.5844367 18.6355088,58.8459311 30.6004211,58.8459311 C42.5653333,58.8459311 52.2986667,68.5844367 52.2986667,80.5539812 C52.2986667,92.5235256 42.5653333,102.262031 30.6004211,102.262031 M10.1990175,29.7792438 C10.1990175,18.5257659 19.3512982,9.36994193 30.6004211,9.36994193 C41.8495439,9.36994193 51.0018246,18.5257659 51.0018246,29.7792438 C51.0018246,41.0327216 41.8495439,50.1885456 30.6004211,50.1885456 C19.3512982,50.1885456 10.1990175,41.0327216 10.1990175,29.7792438 M46.0081404,54.4063182 C54.1990175,49.2604672 59.6572632,40.1481688 59.6572632,29.7792438 C59.6572632,13.7505846 46.6228772,0.711152407 30.6004211,0.711152407 C14.5779649,0.711152407 1.54357895,13.7505846 1.54357895,29.7792438 C1.54357895,40.1481688 7.00322807,49.2604672 15.1927018,54.4063182 C6.25515789,59.6967867 0.246736842,69.4338882 0.246736842,80.5539812 C0.246736842,97.2973029 13.8635789,110.920821 30.6004211,110.920821 C47.3372632,110.920821 60.9555088,97.2973029 60.9555088,80.5539812 C60.9555088,69.4338882 54.9456842,59.6967867 46.0081404,54.4063182" id="Fill-1" fill="#FFFFFF" mask="url(#mask-2)"></path>
                    </g>
                    <path d="M130.360982,50.2705423 L115.824842,50.2705423 L115.824842,11.5973302 L130.360982,11.5973302 C140.762386,11.5973302 149.457123,20.5285059 149.457123,30.9339362 C149.457123,41.3393666 140.762386,50.2705423 130.360982,50.2705423 M130.593965,2.94977313 L106.714667,2.94977313 L106.714667,58.9180994 L130.593965,58.9180994 C146.018526,58.9180994 158.567298,46.3644692 158.567298,30.9339362 C158.567298,15.5034033 146.018526,2.94977313 130.593965,2.94977313" id="Fill-4" fill="#FFFFFF"></path>
                    <path d="M39.6509474,35.7603655 C39.6509474,44.1846783 32.8004211,51.502598 24.3807719,51.502598 C15.9597193,51.502598 9.11059649,44.1846783 9.11059649,35.7603655 L9.11059649,3.08947632 L0.000421052629,3.08947632 L0.000421052629,35.7603655 C0.000421052629,49.2083768 10.9365614,60.1501551 24.3807719,60.1501551 C37.8235789,60.1501551 48.7611228,49.2083768 48.7611228,35.7603655 L48.7611228,3.08947632 L39.6509474,3.08947632 L39.6509474,35.7603655 Z" id="Fill-6" fill="#FFFFFF"></path>
                    <mask id="mask-4" fill="white">
                        <use xlink:href="#path-3"></use>
                    </mask>
                    <g id="Clip-9"></g>
                    <polygon id="Fill-8" fill="#FFFFFF" mask="url(#mask-4)" points="73.1087719 58.821641 82.2189474 58.821641 82.2189474 2.85752691 73.1087719 2.85752691"></polygon>
                </g>
            </g>
        </g>
    </g>
</svg>