<?xml version="1.0" encoding="UTF-8" standalone="no"?>
<svg width="939px" height="468px" viewBox="0 0 939 468" version="1.1" xmlns="http://www.w3.org/2000/svg" xmlns:xlink="http://www.w3.org/1999/xlink">
    <!-- Generator: Sketch 41.2 (35397) - http://www.bohemiancoding.com/sketch -->
    <title>Page 1 Copy 5</title>
    <desc>Created with Sketch.</desc>
    <defs>
        <polygon id="path-1" points="197.613961 0.750967742 0.480837676 0.750967742 0.480837676 197.857806 197.613961 197.857806 197.613961 0.750967742"></polygon>
        <polygon id="path-3" points="197.594219 0.750967742 0.461096127 0.750967742 0.461096127 197.857806 197.594219 197.857806 197.594219 0.750967742"></polygon>
        <polygon id="path-5" points="4.02451406e-11 398.249032 731.487542 398.249032 731.487542 1.58064516 464.011158 1.58064516 4.02451406e-11 1.58064516"></polygon>
    </defs>
    <g id="Website" stroke="none" stroke-width="1" fill="none" fill-rule="evenodd">
        <g id="Page-1-Copy-5" transform="translate(485.571129, 213.900525) rotate(-347.000000) translate(-485.571129, -213.900525) translate(18.571129, 12.900525)">
            <path d="M43.7291282,330.627871 L6.58357887,329.146581 C3.0786,329.017548 0.13369507,331.753032 0.00464577468,335.254968 C-0.124403521,338.759484 2.60886056,341.704 6.11383944,341.833032 L31.4617021,343.069161 L31.4642831,343.249806 C28.5193782,343.709161 26.2171387,346.191742 26.1035754,349.278194 C25.982269,352.558194 28.3825859,355.319484 31.5623606,355.768516 L31.5701035,356.767226 C28.3438711,356.958194 25.7241704,359.541419 25.6002831,362.836903 C25.4738148,366.300129 28.1477162,369.205935 31.5959134,369.396903 L31.5701035,370.292387 C28.1167444,370.22271 25.2286211,372.927226 25.0995718,376.393032 C24.9705225,379.894968 27.7037866,382.839484 31.2087655,382.971097 L66.5347197,384.602065 L88.2562972,371.626581 C87.2832655,348.011097 67.3477303,329.654968 43.7291282,330.627871 L43.7291282,330.627871 Z" id="Fill-1" fill="#67E5C1"></path>
            <path d="M76.700707,329.471226 L76.700707,326.890581 C148.526964,326.890581 206.960485,268.462194 206.960485,196.648 L209.541471,196.648 C209.541471,269.88671 149.949087,329.471226 76.700707,329.471226" id="Fill-3" fill="#67E5C1"></path>
            <path d="M76.700707,393.758194 L76.700707,391.177548 C183.976806,391.177548 271.252844,303.913032 271.252844,196.648516 L273.83383,196.648516 C273.83383,305.334968 185.40151,393.758194 76.700707,393.758194" id="Fill-5" fill="#67E5C1"></path>
            <path d="M273.834863,198.687484 L271.253877,198.687484 C271.253877,125.448774 330.846261,65.8642581 404.094641,65.8642581 L404.094641,68.4449032 C332.268384,68.4449032 273.834863,126.87329 273.834863,198.687484" id="Fill-7" fill="#67E5C1"></path>
            <g id="Group-11" transform="translate(206.478873, 0.829677)">
                <mask id="mask-2" fill="white">
                    <use xlink:href="#path-1"></use>
                </mask>
                <g id="Clip-10"></g>
                <path d="M3.06182359,197.857806 L0.480837676,197.857806 C0.480837676,89.1739355 88.9157391,0.750709677 197.613961,0.750709677 L197.613961,3.33135484 C90.3378623,3.33135484 3.06182359,90.595871 3.06182359,197.857806" id="Fill-9" fill="#67E5C1" mask="url(#mask-2)"></path>
            </g>
            <path d="M536.934114,198.687484 L534.353129,198.687484 C534.353129,126.87329 475.919607,68.4449032 404.09335,68.4449032 L404.09335,65.8642581 C477.341731,65.8642581 536.934114,125.448774 536.934114,198.687484" id="Fill-12" fill="#67E5C1"></path>
            <g id="Group-16" transform="translate(403.633803, 0.829677)">
                <mask id="mask-4" fill="white">
                    <use xlink:href="#path-3"></use>
                </mask>
                <g id="Clip-15"></g>
                <path d="M197.594219,197.857806 L195.013233,197.857806 C195.013233,90.595871 107.737195,3.33135484 0.461096127,3.33135484 L0.461096127,0.750709677 C109.159318,0.750709677 197.594219,89.1739355 197.594219,197.857806" id="Fill-14" fill="#67E5C1" mask="url(#mask-4)"></path>
            </g>
            <path d="M731.487026,329.471226 C658.238646,329.471226 598.646262,269.88671 598.646262,196.648 L601.227248,196.648 C601.227248,268.462194 659.660769,326.890581 731.487026,326.890581 L731.487026,329.471226 Z" id="Fill-17" fill="#67E5C1"></path>
            <path d="M731.487026,393.758194 C622.786223,393.758194 534.353903,305.334968 534.353903,196.648516 L536.934889,196.648516 C536.934889,303.913032 624.210927,391.177548 731.487026,391.177548 L731.487026,393.758194 Z" id="Fill-19" fill="#67E5C1"></path>
            <g id="Group-49" transform="translate(831.254706, 298.991071) rotate(-88.000000) translate(-831.254706, -298.991071) translate(732.254706, 199.991071)" fill="#67E5C1">
                <path d="M197.877426,132.865669 C124.629046,132.865669 65.0366621,73.2811526 65.0366621,0.0424429663 L67.617648,0.0424429663 C67.617648,71.8566365 126.051169,130.285024 197.877426,130.285024 L197.877426,132.865669 Z" id="Fill-17-Copy"></path>
                <path d="M197.877426,197.152637 C89.1766234,197.152637 0.744302964,108.729411 0.744302964,0.0429590954 L3.32528888,0.0429590954 C3.32528888,107.307475 90.6013276,194.571991 197.877426,194.571991 L197.877426,197.152637 Z" id="Fill-19-Copy"></path>
            </g>
            <mask id="mask-6" fill="white">
                <use xlink:href="#path-5"></use>
            </mask>
            <g id="Clip-22"></g>
            <polygon id="Fill-21" fill="#67E5C1" mask="url(#mask-6)" points="74.9621549 398.249032 77.5431408 398.249032 77.5431408 322.765161 74.9621549 322.765161"></polygon>
            <polygon id="Fill-23" fill="#67E5C1" mask="url(#mask-6)" points="85.206088 398.249032 87.7870739 398.249032 87.7870739 322.765161 85.206088 322.765161"></polygon>
            <path d="M36.4685567,340.025806 L10.2741306,338.750968 C6.08002852,338.593548 2.78152852,335.042581 2.93638768,330.836129 C3.09382782,326.629677 6.61429261,323.411613 10.8522715,323.486452 L40.5671623,324.588387 L40.4716658,327.169032 L10.756775,326.067097 C7.95124331,325.932903 5.61803204,328.144516 5.51479261,330.934194 C5.41155317,333.71871 7.59506725,336.069677 10.385113,336.172903 L36.595025,337.450323 L36.4685567,340.025806 Z" id="Fill-24" fill="#FFFFFF" mask="url(#mask-6)"></path>
            <path d="M36.3864813,352.777806 C32.1768933,352.617806 28.8809743,349.069419 29.0358335,344.862968 C29.1906926,340.653935 32.7395482,337.446194 36.9517173,337.51071 L36.8562208,340.091355 C34.1616715,339.962323 31.7174778,342.171355 31.6142384,344.958452 C31.5109989,347.742968 33.697094,350.093935 36.4819778,350.197161 L36.3864813,352.777806 Z" id="Fill-25" fill="#FFFFFF" mask="url(#mask-6)"></path>
            <path d="M35.8849958,366.333677 C31.6754077,366.173677 28.3794887,362.62529 28.5343479,358.418839 C28.6091965,356.380129 29.4738268,354.491097 30.9707986,353.10271 C32.4626085,351.719484 34.3622141,350.978839 36.4502317,351.066581 L36.3547352,353.647226 C35.0126225,353.600774 33.7169676,354.075613 32.725869,354.994323 C31.7373514,355.915613 31.1643725,357.162065 31.1127528,358.514323 C31.0095134,361.298839 33.1956085,363.649806 35.9804923,363.753032 L35.8849958,366.333677 Z" id="Fill-26" fill="#FFFFFF" mask="url(#mask-6)"></path>
            <path d="M70.6968176,381.520258 L35.3708634,379.88671 C33.3447894,379.814452 31.4580887,378.949935 30.0695183,377.455742 C28.6809479,375.958968 27.9556908,374.013161 28.0331204,371.974452 C28.107969,369.935742 28.9725993,368.04671 30.4669901,366.660903 C31.963962,365.272516 33.9358352,364.591226 35.9490042,364.624774 L35.8535077,367.205419 C34.4752613,367.140903 33.2131592,367.631226 32.2246415,368.552516 C31.233543,369.471226 30.6605641,370.717677 30.6115254,372.069935 C30.5624866,373.419613 31.039969,374.707355 31.9588,375.698323 C32.880212,376.68929 34.1294092,377.262194 35.4792648,377.308645 L70.815543,378.944774 L70.6968176,381.520258 Z" id="Fill-27" fill="#FFFFFF" mask="url(#mask-6)"></path>
            <path d="M93.4479504,368.433032 L90.8669644,368.433032 C90.8669644,345.547871 72.2451511,326.928516 49.356968,326.928516 L49.356968,324.347871 C73.6672743,324.347871 93.4479504,344.123355 93.4479504,368.433032" id="Fill-28" fill="#FFFFFF" mask="url(#mask-6)"></path>
        </g>
    </g>
</svg>